<svg xmlns="http://www.w3.org/2000/svg" xmlns:xlink="http://www.w3.org/1999/xlink" xmlns:lucid="lucid" width="1912" height="1542"><g transform="translate(2488 824)" lucid:page-tab-id="HWEp-vi-RSFO"><path d="M-3200-1200H160v2560h-3360z" fill="#fff"/><path d="M-2440-526h40v409.67h-40z" stroke="#000" stroke-width="2" fill="#fff"/><path d="M-2440-116.33h40v775.66h-40z" stroke="#000" stroke-width="2" fill="#fff"/><path d="M-2400-526h1760v409.67h-1760z" stroke="#000" stroke-width="2" fill="none"/><path d="M-2400-116.33h1760v775.66h-1760z" stroke="#000" stroke-width="2" fill="none"/><use xlink:href="#a" transform="matrix(-1.8369701987210297e-16,-1,1,-1.8369701987210297e-16,-2440,-116.33333333333394) translate(197.49853515625 26.5478515625)"/><use xlink:href="#b" transform="matrix(-1.8369701987210297e-16,-1,1,-1.8369701987210297e-16,-2440,659.3333333333326) translate(368.97607421875 27.0478515625)"/><path d="M-2279.5 380.5h360v156h-360z" stroke="#000" stroke-width="2" fill="#fff"/><path d="M-2279.5 418.28h360m-360 59.28h360" stroke="#000" stroke-width="2" fill="none"/><use xlink:href="#c" transform="matrix(1,0,0,1,-2271.5,388.49999999999955) translate(152.716796875 17.5478515625)"/><use xlink:href="#d" transform="matrix(1,0,0,1,-2267.5,426.27929687499955) translate(114.90087890625 28.5478515625)"/><use xlink:href="#e" transform="matrix(1,0,0,1,-2267.5,426.27929687499955) translate(131.87255859375 28.5478515625)"/><use xlink:href="#f" transform="matrix(1,0,0,1,-2267.5,485.55859374999955) translate(90.7529296875 28.5478515625)"/><use xlink:href="#g" transform="matrix(1,0,0,1,-2267.5,485.55859374999955) translate(107.724609375 28.5478515625)"/><use xlink:href="#h" transform="matrix(1,0,0,1,-2267.5,485.55859374999955) translate(176.4287109375 28.5478515625)"/><path d="M-1659.5 328h360v261h-360z" stroke="#000" stroke-width="2" fill="#fff"/><path d="M-1659.5 365.78h360m-360 137.68h360" stroke="#000" stroke-width="2" fill="none"/><use xlink:href="#i" transform="matrix(1,0,0,1,-1651.5,335.99999999999955) translate(127.28564453125 17.5478515625)"/><use xlink:href="#j" transform="matrix(1,0,0,1,-1647.5,373.77929687499955) translate(103.79150390625 28.3451171875)"/><use xlink:href="#k" transform="matrix(1,0,0,1,-1647.5,373.77929687499955) translate(120.76318359375 28.3451171875)"/><use xlink:href="#j" transform="matrix(1,0,0,1,-1647.5,373.77929687499955) translate(104.81982421875 54.4802734375)"/><use xlink:href="#l" transform="matrix(1,0,0,1,-1647.5,373.77929687499955) translate(121.79150390625 54.4802734375)"/><use xlink:href="#j" transform="matrix(1,0,0,1,-1647.5,373.77929687499955) translate(132.48779296875 80.6154296875)"/><use xlink:href="#m" transform="matrix(1,0,0,1,-1647.5,373.77929687499955) translate(149.45947265625 80.6154296875)"/><use xlink:href="#j" transform="matrix(1,0,0,1,-1647.5,373.77929687499955) translate(104.60009765625 106.7505859375)"/><use xlink:href="#n" transform="matrix(1,0,0,1,-1647.5,373.77929687499955) translate(121.57177734375 106.7505859375)"/><use xlink:href="#f" transform="matrix(1,0,0,1,-1647.5,511.46406249999956) translate(18.37060546875 28.480273437500003)"/><use xlink:href="#o" transform="matrix(1,0,0,1,-1647.5,511.46406249999956) translate(35.34228515625 28.480273437500003)"/><use xlink:href="#p" transform="matrix(1,0,0,1,-1647.5,511.46406249999956) translate(114.29443359375 28.480273437500003)"/><use xlink:href="#q" transform="matrix(1,0,0,1,-1647.5,511.46406249999956) translate(163.07373046875 28.480273437500003)"/><use xlink:href="#r" transform="matrix(1,0,0,1,-1647.5,511.46406249999956) translate(209.79638671875 28.480273437500003)"/><use xlink:href="#s" transform="matrix(1,0,0,1,-1647.5,511.46406249999956) translate(86.6572265625 54.6154296875)"/><use xlink:href="#t" transform="matrix(1,0,0,1,-1647.5,511.46406249999956) translate(103.62890625 54.6154296875)"/><path d="M-1232.17 458.98H-1298v-.96h65.83zm134.8 0h-73.05v-.96h73.04z" stroke="#333" stroke-width=".05" fill="#333"/><path d="M-1082.62 458.5l-14.26 4.63v-9.26z" fill="#333"/><path d="M-1081.08 458.5l-16.28 5.3v-10.6zm-15.33 3.98l12.25-3.98-12.26-3.98z" stroke="#333" stroke-width=".05" fill="#333"/><path d="M-1298 458.98h-.5v-.96h.5z" fill="#333"/><path stroke="#333" stroke-width=".05" fill="#333"/><use xlink:href="#u" transform="matrix(1,0,0,1,-1087.4043994140625,429.6099989906254) translate(0.004999999999999893 16.216875)"/><use xlink:href="#v" transform="matrix(1,0,0,1,-1232.1692726518854,447.61035156249955) translate(0.004999999999999005 17.4375)"/><path d="M-1661 458.5h-241.12" stroke="#333" fill="none"/><path d="M-1660.5 458.98h-.5v-.96h.5z" stroke="#333" stroke-width=".05" fill="#333"/><path d="M-1916.88 458.5l14.26-4.63v9.26z" stroke="#333" fill="#333"/><use xlink:href="#u" transform="matrix(1,0,0,1,-1918.9043994140625,467.1352549156238) translate(0.004999999999999893 16.216875)"/><path d="M-1080 354h360v209h-360z" stroke="#000" stroke-width="2" fill="#fff"/><path d="M-1080 391.78h360m-360 111.55h360" stroke="#000" stroke-width="2" fill="none"/><use xlink:href="#w" transform="matrix(1,0,0,1,-1072,361.99999999999955) translate(124.2666015625 17.5478515625)"/><use xlink:href="#d" transform="matrix(1,0,0,1,-1068,399.77929687499955) translate(71.4169921875 28.412695312500006)"/><use xlink:href="#x" transform="matrix(1,0,0,1,-1068,399.77929687499955) translate(88.388671875 28.412695312500006)"/><use xlink:href="#j" transform="matrix(1,0,0,1,-1068,399.77929687499955) translate(64.66259765625 54.5478515625)"/><use xlink:href="#y" transform="matrix(1,0,0,1,-1068,399.77929687499955) translate(81.63427734375 54.5478515625)"/><use xlink:href="#j" transform="matrix(1,0,0,1,-1068,399.77929687499955) translate(97.5732421875 80.6830078125)"/><use xlink:href="#z" transform="matrix(1,0,0,1,-1068,399.77929687499955) translate(114.544921875 80.6830078125)"/><path d="M-1080-399.17h360v156h-360z" stroke="#000" stroke-width="2" fill="#fff"/><path d="M-1080-361.4h360m-360 59.3h360" stroke="#000" stroke-width="2" fill="none"/><use xlink:href="#A" transform="matrix(1,0,0,1,-1072,-391.1666666666668) translate(140.53515625 17.5478515625)"/><use xlink:href="#f" transform="matrix(1,0,0,1,-1068,-294.1080729166668) translate(74.65576171875 28.5478515625)"/><use xlink:href="#B" transform="matrix(1,0,0,1,-1068,-294.1080729166668) translate(91.62744140625 28.5478515625)"/><path d="M-1698-46h437v235h-437z" stroke="#000" stroke-width="2" fill="#fff"/><path d="M-1698-8.22h437m-437 111.55h437" stroke="#000" stroke-width="2" fill="none"/><use xlink:href="#C" transform="matrix(1,0,0,1,-1690,-38.000000000000455) translate(169.40673828125 17.5478515625)"/><use xlink:href="#s" transform="matrix(1,0,0,1,-1686,-0.22070312500045475) translate(153.5107421875 28.412695312500006)"/><use xlink:href="#D" transform="matrix(1,0,0,1,-1686,-0.22070312500045475) translate(170.482421875 28.412695312500006)"/><use xlink:href="#j" transform="matrix(1,0,0,1,-1686,-0.22070312500045475) translate(143.10009765625 54.5478515625)"/><use xlink:href="#E" transform="matrix(1,0,0,1,-1686,-0.22070312500045475) translate(160.07177734375 54.5478515625)"/><use xlink:href="#j" transform="matrix(1,0,0,1,-1686,-0.22070312500045475) translate(138.38916015625 80.6830078125)"/><use xlink:href="#F" transform="matrix(1,0,0,1,-1686,-0.22070312500045475) translate(155.36083984375 80.6830078125)"/><use xlink:href="#j" transform="matrix(1,0,0,1,-1686,111.32890624999953) translate(58.44384765625 28.480273437500003)"/><use xlink:href="#G" transform="matrix(1,0,0,1,-1686,111.32890624999953) translate(75.41552734375 28.480273437500003)"/><use xlink:href="#H" transform="matrix(1,0,0,1,-1686,111.32890624999953) translate(154.36767578125 28.480273437500003)"/><use xlink:href="#I" transform="matrix(1,0,0,1,-1686,111.32890624999953) translate(218.66845703125 28.480273437500003)"/><use xlink:href="#j" transform="matrix(1,0,0,1,-1686,111.32890624999953) translate(125.1572265625 54.6154296875)"/><use xlink:href="#J" transform="matrix(1,0,0,1,-1686,111.32890624999953) translate(142.12890625 54.6154296875)"/><path d="M-1479.03 310.62h-.94V269.4h.94zm0-63h-.94V190.5h.94z" stroke="#333" stroke-width=".05" fill="#333"/><path d="M-1479.03 190.5h-.94v-.5h.94z" fill="#333"/><path stroke="#333" stroke-width=".05" fill="#333"/><path d="M-1479.5 325.38l-4.63-14.26h9.27z" fill="#333"/><path d="M-1479.5 326.92l-5.3-16.28h10.6zm-3.98-15.33l3.98 12.25 3.98-12.26z" stroke="#333" stroke-width=".05" fill="#333"/><use xlink:href="#u" transform="matrix(1,0,0,1,-1466.8647450843757,306.87262695312455) translate(0.004999999999999893 16.216875)"/><use xlink:href="#K" transform="matrix(1,0,0,1,-1529.5712890625,247.61035156249955) translate(0.005000000000002558 17.4375)"/><path d="M-2320-19.5h441v182h-441z" stroke="#000" stroke-width="2" fill="#fff"/><path d="M-2320 44.4h441" stroke="#000" stroke-width="2" fill="none"/><use xlink:href="#L" transform="matrix(1,0,0,1,-2312,-11.500000000000455) translate(136.97998046875 17.480273437500003)"/><use xlink:href="#M" transform="matrix(1,0,0,1,-2312,-11.500000000000455) translate(167.53076171875 43.6154296875)"/><use xlink:href="#s" transform="matrix(1,0,0,1,-2308,52.41445312499954) translate(32.67041015625 44.9802734375)"/><use xlink:href="#N" transform="matrix(1,0,0,1,-2308,52.41445312499954) translate(49.64208984375 44.9802734375)"/><use xlink:href="#O" transform="matrix(1,0,0,1,-2308,52.41445312499954) translate(239.67919921875 44.9802734375)"/><use xlink:href="#j" transform="matrix(1,0,0,1,-2308,52.41445312499954) translate(29.24267578125 71.1154296875)"/><use xlink:href="#P" transform="matrix(1,0,0,1,-2308,52.41445312499954) translate(46.21435546875 71.1154296875)"/><use xlink:href="#Q" transform="matrix(1,0,0,1,-2308,52.41445312499954) translate(243.10693359375 71.1154296875)"/><path d="M-2314.13-384.17h429.26v126h-429.26z" stroke="#000" stroke-width="2" fill="#fff"/><path d="M-2314.13-346.4h429.26" stroke="#000" stroke-width="2" fill="none"/><use xlink:href="#R" transform="matrix(1,0,0,1,-2306.125,-376.1666666666668) translate(178.32568359375 17.5478515625)"/><use xlink:href="#j" transform="matrix(1,0,0,1,-2302.125,-338.3873697916668) translate(108.6845703125 29.980273437500003)"/><use xlink:href="#S" transform="matrix(1,0,0,1,-2302.125,-338.3873697916668) translate(125.65625 29.980273437500003)"/><use xlink:href="#j" transform="matrix(1,0,0,1,-2302.125,-338.3873697916668) translate(7.42578125 56.1154296875)"/><use xlink:href="#T" transform="matrix(1,0,0,1,-2302.125,-338.3873697916668) translate(24.3974609375 56.1154296875)"/><use xlink:href="#U" transform="matrix(1,0,0,1,-2302.125,-338.3873697916668) translate(250.0390625 56.1154296875)"/><path d="M-1659.5-455.67h360v269h-360z" stroke="#000" stroke-width="2" fill="#fff"/><path d="M-1659.5-417.9h360" stroke="#000" stroke-width="2" fill="none"/><use xlink:href="#V" transform="matrix(1,0,0,1,-1651.5,-447.6666666666668) translate(113.0166015625 17.5478515625)"/><use xlink:href="#j" transform="matrix(1,0,0,1,-1647.5,-409.8873697916668) translate(65.3525390625 36.1423828125)"/><use xlink:href="#W" transform="matrix(1,0,0,1,-1647.5,-409.8873697916668) translate(82.32421875 36.1423828125)"/><use xlink:href="#j" transform="matrix(1,0,0,1,-1647.5,-409.8873697916668) translate(119.77880859375 62.2775390625)"/><use xlink:href="#X" transform="matrix(1,0,0,1,-1647.5,-409.8873697916668) translate(136.75048828125 62.2775390625)"/><use xlink:href="#j" transform="matrix(1,0,0,1,-1647.5,-409.8873697916668) translate(103.79150390625 88.4126953125)"/><use xlink:href="#k" transform="matrix(1,0,0,1,-1647.5,-409.8873697916668) translate(120.76318359375 88.4126953125)"/><use xlink:href="#j" transform="matrix(1,0,0,1,-1647.5,-409.8873697916668) translate(104.81982421875 114.5478515625)"/><use xlink:href="#l" transform="matrix(1,0,0,1,-1647.5,-409.8873697916668) translate(121.79150390625 114.5478515625)"/><use xlink:href="#j" transform="matrix(1,0,0,1,-1647.5,-409.8873697916668) translate(115.0107421875 140.6830078125)"/><use xlink:href="#Y" transform="matrix(1,0,0,1,-1647.5,-409.8873697916668) translate(131.982421875 140.6830078125)"/><use xlink:href="#j" transform="matrix(1,0,0,1,-1647.5,-409.8873697916668) translate(99.88916015625 166.8181640625)"/><use xlink:href="#Z" transform="matrix(1,0,0,1,-1647.5,-409.8873697916668) translate(116.86083984375 166.8181640625)"/><use xlink:href="#j" transform="matrix(1,0,0,1,-1647.5,-409.8873697916668) translate(81.4013671875 192.9533203125)"/><use xlink:href="#aa" transform="matrix(1,0,0,1,-1647.5,-409.8873697916668) translate(98.373046875 192.9533203125)"/><path d="M-1081.5-320.7h-5.14v-.94h5.14zm-10.3 0h-10.28v-.94h10.3zm-15.42 0h-10.3v-.94h10.3zm-15.43 0h-10.3v-.94h10.3zm-15.43 0h-10.3v-.94h10.3zm-15.44 0h-10.28v-.94h10.28zm-61.72 0h-10.3v-.94h10.3zm-15.44 0h-10.28v-.94h10.28zm-15.43 0h-10.3v-.94h10.3zm-15.44 0h-10.3v-.94h10.3zm-15.43 0h-5.15v-.94h5.15z" stroke="#333" stroke-width=".05" fill="#333"/><path d="M-1081-320.7h-.5v-.94h.5z" fill="#333"/><path stroke="#333" stroke-width=".05" fill="#333"/><path d="M-1282.62-316.53l-14.26-4.64 14.26-4.63z" fill="#333"/><path d="M-1282.14-315.88l-16.28-5.3 16.28-5.28zm-13.2-5.3l12.25 4v-7.97z" stroke="#333" stroke-width=".05" fill="#333"/><use xlink:href="#ab" transform="matrix(1,0,0,1,-1212.05224609375,-332.0563151041668) translate(0.004999999999999005 17.4375)"/><path d="M-2440-526h40v409.67h-40z" stroke="#000" stroke-width="2" fill="#fff"/><path d="M-2440-116.33h40v775.66h-40z" stroke="#000" stroke-width="2" fill="#fff"/><path d="M-2400-526h1760v409.67h-1760z" stroke="#000" stroke-width="2" fill="none"/><path d="M-2400-116.33h1760v775.66h-1760z" stroke="#000" stroke-width="2" fill="none"/><use xlink:href="#a" transform="matrix(-1.8369701987210297e-16,-1,1,-1.8369701987210297e-16,-2440,-116.33333333333394) translate(197.49853515625 26.5478515625)"/><use xlink:href="#b" transform="matrix(-1.8369701987210297e-16,-1,1,-1.8369701987210297e-16,-2440,659.3333333333326) translate(368.97607421875 27.0478515625)"/><path d="M-2279.5 380.5h360v156h-360z" stroke="#000" stroke-width="2" fill="#fff"/><path d="M-2279.5 418.28h360m-360 59.28h360" stroke="#000" stroke-width="2" fill="none"/><use xlink:href="#c" transform="matrix(1,0,0,1,-2271.5,388.49999999999955) translate(152.716796875 17.5478515625)"/><use xlink:href="#d" transform="matrix(1,0,0,1,-2267.5,426.27929687499955) translate(114.90087890625 28.5478515625)"/><use xlink:href="#e" transform="matrix(1,0,0,1,-2267.5,426.27929687499955) translate(131.87255859375 28.5478515625)"/><use xlink:href="#f" transform="matrix(1,0,0,1,-2267.5,485.55859374999955) translate(90.7529296875 28.5478515625)"/><use xlink:href="#g" transform="matrix(1,0,0,1,-2267.5,485.55859374999955) translate(107.724609375 28.5478515625)"/><use xlink:href="#h" transform="matrix(1,0,0,1,-2267.5,485.55859374999955) translate(176.4287109375 28.5478515625)"/><path d="M-1659.5 328h360v261h-360z" stroke="#000" stroke-width="2" fill="#fff"/><path d="M-1659.5 365.78h360m-360 137.68h360" stroke="#000" stroke-width="2" fill="none"/><g><use xlink:href="#i" transform="matrix(1,0,0,1,-1651.5,335.99999999999955) translate(127.28564453125 17.5478515625)"/></g><g><use xlink:href="#j" transform="matrix(1,0,0,1,-1647.5,373.77929687499955) translate(103.79150390625 28.3451171875)"/><use xlink:href="#k" transform="matrix(1,0,0,1,-1647.5,373.77929687499955) translate(120.76318359375 28.3451171875)"/><use xlink:href="#j" transform="matrix(1,0,0,1,-1647.5,373.77929687499955) translate(104.81982421875 54.4802734375)"/><use xlink:href="#l" transform="matrix(1,0,0,1,-1647.5,373.77929687499955) translate(121.79150390625 54.4802734375)"/><use xlink:href="#j" transform="matrix(1,0,0,1,-1647.5,373.77929687499955) translate(132.48779296875 80.6154296875)"/><use xlink:href="#m" transform="matrix(1,0,0,1,-1647.5,373.77929687499955) translate(149.45947265625 80.6154296875)"/><use xlink:href="#j" transform="matrix(1,0,0,1,-1647.5,373.77929687499955) translate(104.60009765625 106.7505859375)"/><use xlink:href="#n" transform="matrix(1,0,0,1,-1647.5,373.77929687499955) translate(121.57177734375 106.7505859375)"/></g><g><use xlink:href="#f" transform="matrix(1,0,0,1,-1647.5,511.46406249999956) translate(18.37060546875 28.480273437500003)"/><use xlink:href="#o" transform="matrix(1,0,0,1,-1647.5,511.46406249999956) translate(35.34228515625 28.480273437500003)"/><use xlink:href="#p" transform="matrix(1,0,0,1,-1647.5,511.46406249999956) translate(114.29443359375 28.480273437500003)"/><use xlink:href="#q" transform="matrix(1,0,0,1,-1647.5,511.46406249999956) translate(163.07373046875 28.480273437500003)"/><use xlink:href="#r" transform="matrix(1,0,0,1,-1647.5,511.46406249999956) translate(209.79638671875 28.480273437500003)"/><use xlink:href="#s" transform="matrix(1,0,0,1,-1647.5,511.46406249999956) translate(86.6572265625 54.6154296875)"/><use xlink:href="#t" transform="matrix(1,0,0,1,-1647.5,511.46406249999956) translate(103.62890625 54.6154296875)"/></g><path d="M-1232.17 458.98H-1298v-.96h65.83zm134.8 0h-73.05v-.96h73.04z" stroke="#333" stroke-width=".05" fill="#333"/><path d="M-1082.62 458.5l-14.26 4.63v-9.26z" fill="#333"/><path d="M-1081.08 458.5l-16.28 5.3v-10.6zm-15.33 3.98l12.25-3.98-12.26-3.98z" stroke="#333" stroke-width=".05" fill="#333"/><path d="M-1298 458.98h-.5v-.96h.5z" fill="#333"/><path stroke="#333" stroke-width=".05" fill="#333"/><g><use xlink:href="#u" transform="matrix(1,0,0,1,-1087.4043994140625,429.6099989906254) translate(0.004999999999999893 16.216875)"/></g><g><use xlink:href="#v" transform="matrix(1,0,0,1,-1232.1692726518854,447.61035156249955) translate(0.004999999999999005 17.4375)"/></g><path d="M-1661 458.5h-241.12" stroke="#333" fill="none"/><path d="M-1660.5 458.98h-.5v-.96h.5z" stroke="#333" stroke-width=".05" fill="#333"/><path d="M-1916.88 458.5l14.26-4.63v9.26z" stroke="#333" fill="#333"/><g><use xlink:href="#u" transform="matrix(1,0,0,1,-1918.9043994140625,467.1352549156238) translate(0.004999999999999893 16.216875)"/></g><path d="M-1080 354h360v209h-360z" stroke="#000" stroke-width="2" fill="#fff"/><path d="M-1080 391.78h360m-360 111.55h360" stroke="#000" stroke-width="2" fill="none"/><g><use xlink:href="#w" transform="matrix(1,0,0,1,-1072,361.99999999999955) translate(124.2666015625 17.5478515625)"/></g><g><use xlink:href="#d" transform="matrix(1,0,0,1,-1068,399.77929687499955) translate(71.4169921875 28.412695312500006)"/><use xlink:href="#x" transform="matrix(1,0,0,1,-1068,399.77929687499955) translate(88.388671875 28.412695312500006)"/><use xlink:href="#j" transform="matrix(1,0,0,1,-1068,399.77929687499955) translate(64.66259765625 54.5478515625)"/><use xlink:href="#y" transform="matrix(1,0,0,1,-1068,399.77929687499955) translate(81.63427734375 54.5478515625)"/><use xlink:href="#j" transform="matrix(1,0,0,1,-1068,399.77929687499955) translate(97.5732421875 80.6830078125)"/><use xlink:href="#z" transform="matrix(1,0,0,1,-1068,399.77929687499955) translate(114.544921875 80.6830078125)"/></g><path d="M-1080-399.17h360v156h-360z" stroke="#000" stroke-width="2" fill="#fff"/><path d="M-1080-361.4h360m-360 59.3h360" stroke="#000" stroke-width="2" fill="none"/><g><use xlink:href="#A" transform="matrix(1,0,0,1,-1072,-391.1666666666668) translate(140.53515625 17.5478515625)"/></g><g><use xlink:href="#f" transform="matrix(1,0,0,1,-1068,-294.1080729166668) translate(74.65576171875 28.5478515625)"/><use xlink:href="#B" transform="matrix(1,0,0,1,-1068,-294.1080729166668) translate(91.62744140625 28.5478515625)"/></g><path d="M-1698-46h437v235h-437z" stroke="#000" stroke-width="2" fill="#fff"/><path d="M-1698-8.22h437m-437 111.55h437" stroke="#000" stroke-width="2" fill="none"/><g><use xlink:href="#C" transform="matrix(1,0,0,1,-1690,-38.000000000000455) translate(169.40673828125 17.5478515625)"/></g><g><use xlink:href="#s" transform="matrix(1,0,0,1,-1686,-0.22070312500045475) translate(153.5107421875 28.412695312500006)"/><use xlink:href="#D" transform="matrix(1,0,0,1,-1686,-0.22070312500045475) translate(170.482421875 28.412695312500006)"/><use xlink:href="#j" transform="matrix(1,0,0,1,-1686,-0.22070312500045475) translate(143.10009765625 54.5478515625)"/><use xlink:href="#E" transform="matrix(1,0,0,1,-1686,-0.22070312500045475) translate(160.07177734375 54.5478515625)"/><use xlink:href="#j" transform="matrix(1,0,0,1,-1686,-0.22070312500045475) translate(138.38916015625 80.6830078125)"/><use xlink:href="#F" transform="matrix(1,0,0,1,-1686,-0.22070312500045475) translate(155.36083984375 80.6830078125)"/></g><g><use xlink:href="#j" transform="matrix(1,0,0,1,-1686,111.32890624999953) translate(58.44384765625 28.480273437500003)"/><use xlink:href="#G" transform="matrix(1,0,0,1,-1686,111.32890624999953) translate(75.41552734375 28.480273437500003)"/><use xlink:href="#H" transform="matrix(1,0,0,1,-1686,111.32890624999953) translate(154.36767578125 28.480273437500003)"/><use xlink:href="#I" transform="matrix(1,0,0,1,-1686,111.32890624999953) translate(218.66845703125 28.480273437500003)"/><use xlink:href="#j" transform="matrix(1,0,0,1,-1686,111.32890624999953) translate(125.1572265625 54.6154296875)"/><use xlink:href="#J" transform="matrix(1,0,0,1,-1686,111.32890624999953) translate(142.12890625 54.6154296875)"/></g><path d="M-1479.03 310.62h-.94V269.4h.94zm0-63h-.94V190.5h.94z" stroke="#333" stroke-width=".05" fill="#333"/><path d="M-1479.03 190.5h-.94v-.5h.94z" fill="#333"/><path stroke="#333" stroke-width=".05" fill="#333"/><path d="M-1479.5 325.38l-4.63-14.26h9.27z" fill="#333"/><path d="M-1479.5 326.92l-5.3-16.28h10.6zm-3.98-15.33l3.98 12.25 3.98-12.26z" stroke="#333" stroke-width=".05" fill="#333"/><g><use xlink:href="#u" transform="matrix(1,0,0,1,-1466.8647450843757,306.87262695312455) translate(0.004999999999999893 16.216875)"/></g><g><use xlink:href="#K" transform="matrix(1,0,0,1,-1529.5712890625,247.61035156249955) translate(0.005000000000002558 17.4375)"/></g><path d="M-2320-19.5h441v182h-441z" stroke="#000" stroke-width="2" fill="#fff"/><path d="M-2320 44.4h441" stroke="#000" stroke-width="2" fill="none"/><g><use xlink:href="#L" transform="matrix(1,0,0,1,-2312,-11.500000000000455) translate(136.97998046875 17.480273437500003)"/><use xlink:href="#M" transform="matrix(1,0,0,1,-2312,-11.500000000000455) translate(167.53076171875 43.6154296875)"/></g><g><use xlink:href="#s" transform="matrix(1,0,0,1,-2308,52.41445312499954) translate(32.67041015625 44.9802734375)"/><use xlink:href="#N" transform="matrix(1,0,0,1,-2308,52.41445312499954) translate(49.64208984375 44.9802734375)"/><use xlink:href="#O" transform="matrix(1,0,0,1,-2308,52.41445312499954) translate(239.67919921875 44.9802734375)"/><use xlink:href="#j" transform="matrix(1,0,0,1,-2308,52.41445312499954) translate(29.24267578125 71.1154296875)"/><use xlink:href="#P" transform="matrix(1,0,0,1,-2308,52.41445312499954) translate(46.21435546875 71.1154296875)"/><use xlink:href="#Q" transform="matrix(1,0,0,1,-2308,52.41445312499954) translate(243.10693359375 71.1154296875)"/></g><path d="M-2314.13-384.17h429.26v126h-429.26z" stroke="#000" stroke-width="2" fill="#fff"/><path d="M-2314.13-346.4h429.26" stroke="#000" stroke-width="2" fill="none"/><g><use xlink:href="#R" transform="matrix(1,0,0,1,-2306.125,-376.1666666666668) translate(178.32568359375 17.5478515625)"/></g><g><use xlink:href="#j" transform="matrix(1,0,0,1,-2302.125,-338.3873697916668) translate(108.6845703125 29.980273437500003)"/><use xlink:href="#S" transform="matrix(1,0,0,1,-2302.125,-338.3873697916668) translate(125.65625 29.980273437500003)"/><use xlink:href="#j" transform="matrix(1,0,0,1,-2302.125,-338.3873697916668) translate(7.42578125 56.1154296875)"/><use xlink:href="#T" transform="matrix(1,0,0,1,-2302.125,-338.3873697916668) translate(24.3974609375 56.1154296875)"/><use xlink:href="#U" transform="matrix(1,0,0,1,-2302.125,-338.3873697916668) translate(250.0390625 56.1154296875)"/></g><path d="M-1659.5-455.67h360v269h-360z" stroke="#000" stroke-width="2" fill="#fff"/><path d="M-1659.5-417.9h360" stroke="#000" stroke-width="2" fill="none"/><g><use xlink:href="#V" transform="matrix(1,0,0,1,-1651.5,-447.6666666666668) translate(113.0166015625 17.5478515625)"/></g><g><use xlink:href="#j" transform="matrix(1,0,0,1,-1647.5,-409.8873697916668) translate(65.3525390625 36.1423828125)"/><use xlink:href="#W" transform="matrix(1,0,0,1,-1647.5,-409.8873697916668) translate(82.32421875 36.1423828125)"/><use xlink:href="#j" transform="matrix(1,0,0,1,-1647.5,-409.8873697916668) translate(119.77880859375 62.2775390625)"/><use xlink:href="#X" transform="matrix(1,0,0,1,-1647.5,-409.8873697916668) translate(136.75048828125 62.2775390625)"/><use xlink:href="#j" transform="matrix(1,0,0,1,-1647.5,-409.8873697916668) translate(103.79150390625 88.4126953125)"/><use xlink:href="#k" transform="matrix(1,0,0,1,-1647.5,-409.8873697916668) translate(120.76318359375 88.4126953125)"/><use xlink:href="#j" transform="matrix(1,0,0,1,-1647.5,-409.8873697916668) translate(104.81982421875 114.5478515625)"/><use xlink:href="#l" transform="matrix(1,0,0,1,-1647.5,-409.8873697916668) translate(121.79150390625 114.5478515625)"/><use xlink:href="#j" transform="matrix(1,0,0,1,-1647.5,-409.8873697916668) translate(115.0107421875 140.6830078125)"/><use xlink:href="#Y" transform="matrix(1,0,0,1,-1647.5,-409.8873697916668) translate(131.982421875 140.6830078125)"/><use xlink:href="#j" transform="matrix(1,0,0,1,-1647.5,-409.8873697916668) translate(99.88916015625 166.8181640625)"/><use xlink:href="#Z" transform="matrix(1,0,0,1,-1647.5,-409.8873697916668) translate(116.86083984375 166.8181640625)"/><use xlink:href="#j" transform="matrix(1,0,0,1,-1647.5,-409.8873697916668) translate(81.4013671875 192.9533203125)"/><use xlink:href="#aa" transform="matrix(1,0,0,1,-1647.5,-409.8873697916668) translate(98.373046875 192.9533203125)"/></g><path d="M-1081.5-320.7h-5.14v-.94h5.14zm-10.3 0h-10.28v-.94h10.3zm-15.42 0h-10.3v-.94h10.3zm-15.43 0h-10.3v-.94h10.3zm-15.43 0h-10.3v-.94h10.3zm-15.44 0h-10.28v-.94h10.28zm-61.72 0h-10.3v-.94h10.3zm-15.44 0h-10.28v-.94h10.28zm-15.43 0h-10.3v-.94h10.3zm-15.44 0h-10.3v-.94h10.3zm-15.43 0h-5.15v-.94h5.15z" stroke="#333" stroke-width=".05" fill="#333"/><path d="M-1081-320.7h-.5v-.94h.5z" fill="#333"/><path stroke="#333" stroke-width=".05" fill="#333"/><path d="M-1282.62-316.53l-14.26-4.64 14.26-4.63z" fill="#333"/><path d="M-1282.14-315.88l-16.28-5.3 16.28-5.28zm-13.2-5.3l12.25 4v-7.97z" stroke="#333" stroke-width=".05" fill="#333"/><g><use xlink:href="#ab" transform="matrix(1,0,0,1,-1212.05224609375,-332.0563151041668) translate(0.004999999999999005 17.4375)"/></g><path d="M-2279.5-780h360v152h-360z" stroke="#000" stroke-width="2" fill="#fff"/><path d="M-2279.5-742.22h360" stroke="#000" stroke-width="2" fill="none"/><g><use xlink:href="#ac" transform="matrix(1,0,0,1,-2271.5,-772) translate(142.43798828125 17.5478515625)"/></g><g><use xlink:href="#j" transform="matrix(1,0,0,1,-2267.5,-734.220703125) translate(127.39013671875 29.912695312500006)"/><use xlink:href="#ad" transform="matrix(1,0,0,1,-2267.5,-734.220703125) translate(144.36181640625 29.912695312500006)"/><use xlink:href="#j" transform="matrix(1,0,0,1,-2267.5,-734.220703125) translate(115.0107421875 56.0478515625)"/><use xlink:href="#Y" transform="matrix(1,0,0,1,-2267.5,-734.220703125) translate(131.982421875 56.0478515625)"/><use xlink:href="#j" transform="matrix(1,0,0,1,-2267.5,-734.220703125) translate(109.22314453125 82.1830078125)"/><use xlink:href="#ae" transform="matrix(1,0,0,1,-2267.5,-734.220703125) translate(126.19482421875 82.1830078125)"/></g><defs><path d="M537 14c-226 0-379-139-379-422v-710h180v695c0 172 97 275 253 275 160 0 281-109 281-300v-670h181V0H879v-209C806-46 684 14 537 14" id="af"/><path d="M158 0v-1118h180V0H158zm91-1301c-68 0-125-53-125-119s57-119 125-119c69 0 126 53 126 119s-57 119-126 119" id="ag"/><g id="a"><use transform="matrix(0.0087890625,0,0,0.0087890625,0,0)" xlink:href="#af"/><use transform="matrix(0.0087890625,0,0,0.0087890625,10.6435546875,0)" xlink:href="#ag"/></g><path d="M613 24c-304 0-509-231-509-576 0-350 205-580 509-580 216 0 392 114 453 309l-173 49c-33-115-133-197-280-197-223 0-326 196-326 419 0 220 103 415 326 415 150 0 252-85 285-206l172 49C1010-95 832 24 613 24" id="ah"/><path d="M613 24c-304 0-509-231-509-576 0-350 205-580 509-580 305 0 511 230 511 580 0 345-206 576-511 576zm0-161c226 0 329-195 329-415 0-222-103-419-329-419-223 0-326 196-326 419 0 220 103 415 326 415" id="ai"/><path d="M158 0v-1118h174v172h12c41-113 157-188 290-188 26 0 70 2 91 3v181c-11-2-60-10-108-10-161 0-279 109-279 260V0H158" id="aj"/><path d="M628 24c-324 0-524-230-524-574 0-343 198-582 503-582 237 0 487 146 487 559v75H286c9 234 145 362 343 362 132 0 231-58 273-172l174 48C1024-91 857 24 628 24zM287-650h624c-17-190-120-322-304-322-192 0-309 151-320 322" id="ak"/><g id="b"><use transform="matrix(0.0087890625,0,0,0.0087890625,0,0)" xlink:href="#ah"/><use transform="matrix(0.0087890625,0,0,0.0087890625,10.283203125,0)" xlink:href="#ai"/><use transform="matrix(0.0087890625,0,0,0.0087890625,21.076171875,0)" xlink:href="#aj"/><use transform="matrix(0.0087890625,0,0,0.0087890625,27.5537109375,0)" xlink:href="#ak"/></g><path d="M135 0v-1490h468l242 684c30 94 76 293 111 455 34-161 80-360 110-455l238-684h470V0h-307c0-447-3-765 11-1227-122 503-246 788-395 1227H826C676-435 552-717 427-1215c15 453 11 775 11 1215H135" id="al"/><path d="M440 22C227 22 68-92 68-313c0-250 202-322 422-343 195-21 271-24 271-105 0-95-63-149-175-149-116 0-187 57-211 129l-275-46c57-194 237-305 487-305 240 0 474 108 474 379V0H777v-155h-10C713-51 605 22 440 22zm85-211c140 0 238-93 238-211v-121c-37 26-156 42-222 51-111 16-185 59-185 149 0 87 70 132 169 132" id="am"/><path d="M128 418v-1536h295v188h14c41-89 129-202 319-202 248 0 453 193 453 575 0 372-197 576-455 576-183 0-275-108-317-198h-9v597H128zm534-640c156 0 240-139 240-336 0-196-83-334-240-334-154 0-241 131-241 334 0 202 88 336 241 336" id="an"/><g id="c"><use transform="matrix(0.0087890625,0,0,0.0087890625,0,0)" xlink:href="#al"/><use transform="matrix(0.0087890625,0,0,0.0087890625,16.76953125,0)" xlink:href="#am"/><use transform="matrix(0.0087890625,0,0,0.0087890625,27.2197265625,0)" xlink:href="#an"/></g><path d="M593-100v-404H195v-159h398v-403h169v403h398v159H762v404H593" id="ao"/><use transform="matrix(0.0087890625,0,0,0.0087890625,0,0)" xlink:href="#ao" id="d"/><path d="M158 0v-1118h175l1 205c55-151 181-225 313-225 147 0 245 90 285 228 53-141 190-228 352-228 194 0 352 125 352 384V0h-181v-749c0-161-105-225-225-225-151 0-243 103-243 244V0H807v-767c0-124-93-207-219-207-131 0-250 92-250 270V0H158" id="ap"/><path d="M471 26C259 26 90-98 90-318c0-256 228-303 435-329 202-27 287-16 287-108 0-139-79-219-234-219-161 0-248 86-283 164l-173-57c86-203 278-265 451-265 150 0 419 46 419 395V0H815v-152h-12C765-73 660 26 471 26zm31-159c199 0 310-134 310-271v-155c-30 35-226 55-295 64-131 17-246 59-246 186 0 116 97 176 231 176" id="aq"/><path d="M158 418v-1536h174v179h20c37-59 106-193 324-193 279 0 474 222 474 576 0 356-194 580-473 580-213 0-288-135-325-197h-14v591H158zm492-555c209 0 317-186 317-421 0-232-105-413-317-413-206 0-314 166-314 413 0 249 111 421 314 421" id="ar"/><path d="M295 13c-75 0-135-60-135-135s60-135 135-135 135 60 135 135S370 13 295 13zm0-809c-75 0-135-60-135-135s60-135 135-135 135 60 135 135-60 135-135 135" id="as"/><path d="M338-670V0H158v-1118h173l1 207c72-158 192-221 342-221 226 0 378 139 378 422V0H872v-695c0-172-96-275-252-275-161 0-282 109-282 300" id="at"/><path d="M598-1118v154H368v674c0 100 37 144 132 144 23 0 62-6 92-12L629-6c-37 13-88 20-134 20-193 0-307-107-307-290v-688H20v-154h168v-266h180v266h230" id="au"/><path d="M226 279v-1860h398v153H398V126h226v153H226" id="av"/><path d="M123 279V126h226v-1554H123v-153h398V279H123" id="aw"/><g id="e"><use transform="matrix(0.0087890625,0,0,0.0087890625,0,0)" xlink:href="#ap"/><use transform="matrix(0.0087890625,0,0,0.0087890625,15.767578125,0)" xlink:href="#aq"/><use transform="matrix(0.0087890625,0,0,0.0087890625,25.875,0)" xlink:href="#ar"/><use transform="matrix(0.0087890625,0,0,0.0087890625,36.896484375,0)" xlink:href="#as"/><use transform="matrix(0.0087890625,0,0,0.0087890625,42.08203125,0)" xlink:href="#ag"/><use transform="matrix(0.0087890625,0,0,0.0087890625,46.44140625,0)" xlink:href="#at"/><use transform="matrix(0.0087890625,0,0,0.0087890625,57.076171875,0)" xlink:href="#au"/><use transform="matrix(0.0087890625,0,0,0.0087890625,62.96484375,0)" xlink:href="#av"/><use transform="matrix(0.0087890625,0,0,0.0087890625,69.5302734375,0)" xlink:href="#aw"/><use transform="matrix(0.0087890625,0,0,0.0087890625,76.095703125,0)" xlink:href="#av"/><use transform="matrix(0.0087890625,0,0,0.0087890625,82.6611328125,0)" xlink:href="#aw"/></g><use transform="matrix(0.0087890625,0,0,0.0087890625,0,0)" xlink:href="#ao" id="f"/><path d="M218-607c0-325 108-727 258-974h175c-155 315-250 682-250 974 0 265 78 531 250 886H476C306-10 218-315 218-607" id="ax"/><path d="M65 0l393-574-370-544h210c88 136 192 297 267 435 67-142 176-302 264-435h206L661-564 1053 0H844c-94-144-206-310-287-458C484-308 366-142 273 0H65" id="ay"/><path d="M128 359l88-567h206L266 359H128" id="az"/><g id="g"><use transform="matrix(0.0087890625,0,0,0.0087890625,0,0)" xlink:href="#aq"/><use transform="matrix(0.0087890625,0,0,0.0087890625,10.107421875,0)" xlink:href="#au"/><use transform="matrix(0.0087890625,0,0,0.0087890625,15.99609375,0)" xlink:href="#ax"/><use transform="matrix(0.0087890625,0,0,0.0087890625,22.5615234375,0)" xlink:href="#ay"/><use transform="matrix(0.0087890625,0,0,0.0087890625,32.3876953125,0)" xlink:href="#as"/><use transform="matrix(0.0087890625,0,0,0.0087890625,37.5732421875,0)" xlink:href="#ag"/><use transform="matrix(0.0087890625,0,0,0.0087890625,41.9326171875,0)" xlink:href="#at"/><use transform="matrix(0.0087890625,0,0,0.0087890625,52.5673828125,0)" xlink:href="#au"/><use transform="matrix(0.0087890625,0,0,0.0087890625,58.4560546875,0)" xlink:href="#az"/></g><path d="M140 405l46-156c120 36 205 19 263-150l32-93L54-1118h197c107 313 237 620 324 950 87-331 219-637 326-950h196L606 167c-68 178-176 259-334 259-64 0-113-12-132-21" id="aA"/><path d="M96 279C273-86 346-350 346-607c0-292-95-659-250-974h175c150 246 258 650 258 974 0 297-91 602-258 886H96" id="aB"/><g id="h"><use transform="matrix(0.0087890625,0,0,0.0087890625,0,0)" xlink:href="#aA"/><use transform="matrix(0.0087890625,0,0,0.0087890625,10.1162109375,0)" xlink:href="#as"/><use transform="matrix(0.0087890625,0,0,0.0087890625,15.3017578125,0)" xlink:href="#ag"/><use transform="matrix(0.0087890625,0,0,0.0087890625,19.6611328125,0)" xlink:href="#at"/><use transform="matrix(0.0087890625,0,0,0.0087890625,30.2958984375,0)" xlink:href="#au"/><use transform="matrix(0.0087890625,0,0,0.0087890625,36.1845703125,0)" xlink:href="#aB"/><use transform="matrix(0.0087890625,0,0,0.0087890625,42.75,0)" xlink:href="#as"/><use transform="matrix(0.0087890625,0,0,0.0087890625,47.935546875,0)" xlink:href="#ag"/><use transform="matrix(0.0087890625,0,0,0.0087890625,52.294921875,0)" xlink:href="#at"/><use transform="matrix(0.0087890625,0,0,0.0087890625,62.9296875,0)" xlink:href="#au"/></g><path d="M49 0l509-1490h400L1480 0h-339l-115-346H497L386 0H49zm524-585h374c-75-213-124-402-192-666-66 268-110 453-182 666" id="aC"/><path d="M681 22C323 22 94-145 85-462h297c10 151 131 226 296 226 163 0 271-77 271-190 0-102-95-149-257-189l-164-41c-252-61-403-188-403-405 0-269 236-449 560-449 330 0 546 183 551 445H941c-11-119-106-188-259-188-156 0-244 72-244 172-3 156 226 185 373 221 250 61 445 186 445 436 0 271-213 446-575 446" id="aD"/><path d="M683-1118v229H474v562c0 71 29 104 102 104 23 0 73-7 95-13l43 225C647 9 580 16 520 16 296 16 174-96 174-301v-588H20v-229h154v-266h300v266h209" id="aE"/><path d="M128 0v-1118h290v195h12c54-169 184-238 367-200v268c-27-8-86-15-130-15-138 0-239 95-239 234V0H128" id="aF"/><path d="M428-1490V0H128v-1490h300" id="aG"/><path d="M625 442c-280 0-454-114-503-274l258-72c28 63 97 128 243 128 153 0 246-69 246-216v-206h-23C805-108 717-16 536-16 284-16 81-191 81-561c0-378 208-571 456-571 188 0 280 113 321 202h13v-188h295V-9c0 303-226 451-541 451zm5-686c153 0 240-119 240-319 0-198-86-329-240-329-158 0-241 137-241 329 0 195 85 319 241 319" id="aH"/><path d="M628 22C291 22 81-210 81-554c0-346 210-578 547-578 336 0 547 232 547 578 0 344-211 576-547 576zm0-236c160 0 242-146 242-341 0-197-82-341-242-341S387-753 387-555c0 195 81 341 241 341" id="aI"/><g id="i"><use transform="matrix(0.0087890625,0,0,0.0087890625,0,0)" xlink:href="#aC"/><use transform="matrix(0.0087890625,0,0,0.0087890625,13.166015625,0)" xlink:href="#aD"/><use transform="matrix(0.0087890625,0,0,0.0087890625,24.9521484375,0)" xlink:href="#aE"/><use transform="matrix(0.0087890625,0,0,0.0087890625,31.6318359375,0)" xlink:href="#am"/><use transform="matrix(0.0087890625,0,0,0.0087890625,42.08203125,0)" xlink:href="#aF"/><use transform="matrix(0.0087890625,0,0,0.0087890625,48.7001953125,0)" xlink:href="#aC"/><use transform="matrix(0.0087890625,0,0,0.0087890625,62.138671875,0)" xlink:href="#aG"/><use transform="matrix(0.0087890625,0,0,0.0087890625,67.0166015625,0)" xlink:href="#aH"/><use transform="matrix(0.0087890625,0,0,0.0087890625,78.3896484375,0)" xlink:href="#aI"/></g><use transform="matrix(0.0087890625,0,0,0.0087890625,0,0)" xlink:href="#ao" id="j"/><path d="M538 24C308 24 148-78 108-271l171-41c32 123 123 178 257 178 156 0 256-77 256-169 0-77-54-128-164-154l-186-44c-203-48-300-148-300-305 0-192 176-326 414-326 230 0 351 112 402 269l-163 42c-31-80-94-158-238-158-133 0-233 69-233 162 0 83 57 129 188 160l169 40c203 48 298 149 298 302 0 196-179 339-441 339" id="aJ"/><path d="M180 0v-1490h510c348 0 508 209 508 474 0 266-160 477-507 477H370V0H180zm190-706h312c236 0 327-133 327-310 0-176-91-307-329-307H370v617" id="aK"/><g id="k"><use transform="matrix(0.0087890625,0,0,0.0087890625,0,0)" xlink:href="#aJ"/><use transform="matrix(0.0087890625,0,0,0.0087890625,9.5009765625,0)" xlink:href="#au"/><use transform="matrix(0.0087890625,0,0,0.0087890625,15.4775390625,0)" xlink:href="#aq"/><use transform="matrix(0.0087890625,0,0,0.0087890625,25.5849609375,0)" xlink:href="#aj"/><use transform="matrix(0.0087890625,0,0,0.0087890625,32.642578125,0)" xlink:href="#au"/><use transform="matrix(0.0087890625,0,0,0.0087890625,38.53125,0)" xlink:href="#as"/><use transform="matrix(0.0087890625,0,0,0.0087890625,43.716796875,0)" xlink:href="#aK"/><use transform="matrix(0.0087890625,0,0,0.0087890625,55.1162109375,0)" xlink:href="#ai"/><use transform="matrix(0.0087890625,0,0,0.0087890625,65.9091796875,0)" xlink:href="#aJ"/><use transform="matrix(0.0087890625,0,0,0.0087890625,75.41015625,0)" xlink:href="#ag"/><use transform="matrix(0.0087890625,0,0,0.0087890625,79.76953125,0)" xlink:href="#au"/><use transform="matrix(0.0087890625,0,0,0.0087890625,85.658203125,0)" xlink:href="#ag"/><use transform="matrix(0.0087890625,0,0,0.0087890625,90.017578125,0)" xlink:href="#ai"/><use transform="matrix(0.0087890625,0,0,0.0087890625,100.810546875,0)" xlink:href="#at"/></g><path d="M611 442c-248 0-391-105-460-228l146-94c47 65 117 165 314 165 178 0 307-82 307-266v-224h-17C863-141 792-18 576-18c-268 0-472-195-472-546 0-346 197-568 476-568 216 0 288 133 326 193h17v-179h175V29c0 289-215 413-487 413zm-5-620c203 0 314-146 314-390 0-237-108-403-314-403-213 0-319 180-319 403 0 230 109 390 319 390" id="aL"/><path d="M338-1490V0H158v-1490h180" id="aM"/><g id="l"><use transform="matrix(0.0087890625,0,0,0.0087890625,0,0)" xlink:href="#aL"/><use transform="matrix(0.0087890625,0,0,0.0087890625,11.0390625,0)" xlink:href="#ai"/><use transform="matrix(0.0087890625,0,0,0.0087890625,22.0078125,0)" xlink:href="#aq"/><use transform="matrix(0.0087890625,0,0,0.0087890625,32.115234375,0)" xlink:href="#aM"/><use transform="matrix(0.0087890625,0,0,0.0087890625,36.474609375,0)" xlink:href="#as"/><use transform="matrix(0.0087890625,0,0,0.0087890625,41.66015625,0)" xlink:href="#aK"/><use transform="matrix(0.0087890625,0,0,0.0087890625,53.0595703125,0)" xlink:href="#ai"/><use transform="matrix(0.0087890625,0,0,0.0087890625,63.8525390625,0)" xlink:href="#aJ"/><use transform="matrix(0.0087890625,0,0,0.0087890625,73.353515625,0)" xlink:href="#ag"/><use transform="matrix(0.0087890625,0,0,0.0087890625,77.712890625,0)" xlink:href="#au"/><use transform="matrix(0.0087890625,0,0,0.0087890625,83.6015625,0)" xlink:href="#ag"/><use transform="matrix(0.0087890625,0,0,0.0087890625,87.9609375,0)" xlink:href="#ai"/><use transform="matrix(0.0087890625,0,0,0.0087890625,98.75390625,0)" xlink:href="#at"/></g><path d="M338-670V0H158v-1490h180v566c73-149 190-208 336-208 226 0 379 139 379 422V0H872v-695c0-172-96-275-252-275-161 0-282 109-282 300" id="aN"/><path d="M678-1118v154H420V0H240v-964H20v-154h220v-149c0-194 155-293 318-293 85 0 141 18 168 30l-50 154c-19-6-47-17-97-17-111 0-159 58-159 166v109h258" id="aO"/><g id="m"><use transform="matrix(0.0087890625,0,0,0.0087890625,0,0)" xlink:href="#aN"/><use transform="matrix(0.0087890625,0,0,0.0087890625,10.6435546875,0)" xlink:href="#as"/><use transform="matrix(0.0087890625,0,0,0.0087890625,15.8291015625,0)" xlink:href="#aO"/><use transform="matrix(0.0087890625,0,0,0.0087890625,22.4912109375,0)" xlink:href="#af"/><use transform="matrix(0.0087890625,0,0,0.0087890625,33.134765625,0)" xlink:href="#at"/><use transform="matrix(0.0087890625,0,0,0.0087890625,43.76953125,0)" xlink:href="#ah"/></g><path d="M577 24c-279 0-473-224-473-580 0-354 195-576 474-576 218 0 287 134 324 193h14v-551h180V0H922v-173h-20C865-111 790 24 577 24zm27-161c203 0 314-172 314-421 0-247-108-413-314-413-212 0-317 181-317 413 0 235 108 421 317 421" id="aP"/><path d="M677 24c-213 0-288-135-325-197h-20V0H158v-1490h180v551h14c37-59 106-193 324-193 279 0 474 222 474 576 0 356-194 580-473 580zm-27-161c209 0 317-186 317-421 0-232-105-413-317-413-206 0-314 166-314 413 0 249 111 421 314 421" id="aQ"/><g id="n"><use transform="matrix(0.0087890625,0,0,0.0087890625,0,0)" xlink:href="#aO"/><use transform="matrix(0.0087890625,0,0,0.0087890625,6.662109375,0)" xlink:href="#ag"/><use transform="matrix(0.0087890625,0,0,0.0087890625,11.021484375,0)" xlink:href="#at"/><use transform="matrix(0.0087890625,0,0,0.0087890625,21.65625,0)" xlink:href="#ag"/><use transform="matrix(0.0087890625,0,0,0.0087890625,26.015625,0)" xlink:href="#aJ"/><use transform="matrix(0.0087890625,0,0,0.0087890625,35.5166015625,0)" xlink:href="#aN"/><use transform="matrix(0.0087890625,0,0,0.0087890625,46.16015625,0)" xlink:href="#ak"/><use transform="matrix(0.0087890625,0,0,0.0087890625,56.654296875,0)" xlink:href="#aP"/><use transform="matrix(0.0087890625,0,0,0.0087890625,67.67578125,0)" xlink:href="#as"/><use transform="matrix(0.0087890625,0,0,0.0087890625,72.861328125,0)" xlink:href="#aQ"/><use transform="matrix(0.0087890625,0,0,0.0087890625,83.8828125,0)" xlink:href="#ai"/><use transform="matrix(0.0087890625,0,0,0.0087890625,94.67578125,0)" xlink:href="#ai"/><use transform="matrix(0.0087890625,0,0,0.0087890625,105.46875,0)" xlink:href="#aM"/></g><g id="o"><use transform="matrix(0.0087890625,0,0,0.0087890625,0,0)" xlink:href="#ag"/><use transform="matrix(0.0087890625,0,0,0.0087890625,4.359375,0)" xlink:href="#at"/><use transform="matrix(0.0087890625,0,0,0.0087890625,14.994140625,0)" xlink:href="#ag"/><use transform="matrix(0.0087890625,0,0,0.0087890625,19.353515625,0)" xlink:href="#au"/><use transform="matrix(0.0087890625,0,0,0.0087890625,25.2421875,0)" xlink:href="#ax"/><use transform="matrix(0.0087890625,0,0,0.0087890625,31.8076171875,0)" xlink:href="#ap"/><use transform="matrix(0.0087890625,0,0,0.0087890625,47.5751953125,0)" xlink:href="#aq"/><use transform="matrix(0.0087890625,0,0,0.0087890625,57.6826171875,0)" xlink:href="#ar"/><use transform="matrix(0.0087890625,0,0,0.0087890625,68.7041015625,0)" xlink:href="#az"/></g><g id="p"><use transform="matrix(0.0087890625,0,0,0.0087890625,0,0)" xlink:href="#aJ"/><use transform="matrix(0.0087890625,0,0,0.0087890625,9.5009765625,0)" xlink:href="#au"/><use transform="matrix(0.0087890625,0,0,0.0087890625,15.4775390625,0)" xlink:href="#aq"/><use transform="matrix(0.0087890625,0,0,0.0087890625,25.5849609375,0)" xlink:href="#aj"/><use transform="matrix(0.0087890625,0,0,0.0087890625,32.642578125,0)" xlink:href="#au"/><use transform="matrix(0.0087890625,0,0,0.0087890625,38.53125,0)" xlink:href="#az"/></g><g id="q"><use transform="matrix(0.0087890625,0,0,0.0087890625,0,0)" xlink:href="#aL"/><use transform="matrix(0.0087890625,0,0,0.0087890625,11.0390625,0)" xlink:href="#ai"/><use transform="matrix(0.0087890625,0,0,0.0087890625,22.0078125,0)" xlink:href="#aq"/><use transform="matrix(0.0087890625,0,0,0.0087890625,32.115234375,0)" xlink:href="#aM"/><use transform="matrix(0.0087890625,0,0,0.0087890625,36.474609375,0)" xlink:href="#az"/></g><path d="M52 0l541-1490h220L1361 0h-200l-149-416H398L254 0H52zm404-582h497c-103-290-145-390-251-756-108 377-145 460-246 756" id="aR"/><path d="M657 26c-323 0-524-166-541-416h195c15 169 171 246 346 246 202 0 356-106 356-265 5-203-294-238-475-293-239-73-380-191-380-389 0-252 224-419 512-419 294 0 499 171 508 396H992c-17-145-151-228-328-228-193 0-321 102-321 242 0 156 175 211 284 241l149 41c160 44 422 134 422 412 0 244-197 432-541 432" id="aS"/><g id="r"><use transform="matrix(0.0087890625,0,0,0.0087890625,0,0)" xlink:href="#aN"/><use transform="matrix(0.0087890625,0,0,0.0087890625,10.6435546875,0)" xlink:href="#aB"/><use transform="matrix(0.0087890625,0,0,0.0087890625,17.208984375,0)" xlink:href="#as"/><use transform="matrix(0.0087890625,0,0,0.0087890625,22.39453125,0)" xlink:href="#aR"/><use transform="matrix(0.0087890625,0,0,0.0087890625,34.8134765625,0)" xlink:href="#aS"/><use transform="matrix(0.0087890625,0,0,0.0087890625,46.3623046875,0)" xlink:href="#au"/><use transform="matrix(0.0087890625,0,0,0.0087890625,52.3388671875,0)" xlink:href="#aq"/><use transform="matrix(0.0087890625,0,0,0.0087890625,62.4462890625,0)" xlink:href="#aj"/><use transform="matrix(0.0087890625,0,0,0.0087890625,69.22265625,0)" xlink:href="#aR"/><use transform="matrix(0.0087890625,0,0,0.0087890625,81.6416015625,0)" xlink:href="#aM"/><use transform="matrix(0.0087890625,0,0,0.0087890625,86.0009765625,0)" xlink:href="#aL"/><use transform="matrix(0.0087890625,0,0,0.0087890625,97.0400390625,0)" xlink:href="#ai"/></g><use transform="matrix(0.0087890625,0,0,0.0087890625,0,0)" xlink:href="#ao" id="s"/><g id="t"><use transform="matrix(0.0087890625,0,0,0.0087890625,0,0)" xlink:href="#aJ"/><use transform="matrix(0.0087890625,0,0,0.0087890625,9.5009765625,0)" xlink:href="#au"/><use transform="matrix(0.0087890625,0,0,0.0087890625,15.2138671875,0)" xlink:href="#ak"/><use transform="matrix(0.0087890625,0,0,0.0087890625,25.7080078125,0)" xlink:href="#ar"/><use transform="matrix(0.0087890625,0,0,0.0087890625,36.7294921875,0)" xlink:href="#ax"/><use transform="matrix(0.0087890625,0,0,0.0087890625,43.294921875,0)" xlink:href="#aB"/><use transform="matrix(0.0087890625,0,0,0.0087890625,49.8603515625,0)" xlink:href="#as"/><use transform="matrix(0.0087890625,0,0,0.0087890625,55.0458984375,0)" xlink:href="#aR"/><use transform="matrix(0.0087890625,0,0,0.0087890625,67.46484375,0)" xlink:href="#aS"/><use transform="matrix(0.0087890625,0,0,0.0087890625,79.013671875,0)" xlink:href="#au"/><use transform="matrix(0.0087890625,0,0,0.0087890625,84.990234375,0)" xlink:href="#aq"/><use transform="matrix(0.0087890625,0,0,0.0087890625,95.09765625,0)" xlink:href="#aj"/><use transform="matrix(0.0087890625,0,0,0.0087890625,101.8740234375,0)" xlink:href="#aS"/><use transform="matrix(0.0087890625,0,0,0.0087890625,113.4228515625,0)" xlink:href="#au"/><use transform="matrix(0.0087890625,0,0,0.0087890625,119.3994140625,0)" xlink:href="#aq"/><use transform="matrix(0.0087890625,0,0,0.0087890625,129.5068359375,0)" xlink:href="#au"/><use transform="matrix(0.0087890625,0,0,0.0087890625,135.2197265625,0)" xlink:href="#ak"/></g><path d="M653-1490V0H466v-1314h-10L96-1047v-204l324-239h233" id="aT"/><use transform="matrix(0.008173828125000001,0,0,0.008173828125000001,0,0)" xlink:href="#aT" id="u"/><path d="M763 24c-353 0-583-224-583-531v-983h190v968c0 214 149 370 393 370 243 0 391-156 391-370v-968h190v983c0 307-230 531-581 531" id="aU"/><g id="v"><use transform="matrix(0.0087890625,0,0,0.0087890625,0,0)" xlink:href="#aU"/><use transform="matrix(0.0087890625,0,0,0.0087890625,13.39453125,0)" xlink:href="#ar"/><use transform="matrix(0.0087890625,0,0,0.0087890625,24.416015625,0)" xlink:href="#aP"/><use transform="matrix(0.0087890625,0,0,0.0087890625,35.4375,0)" xlink:href="#aq"/><use transform="matrix(0.0087890625,0,0,0.0087890625,45.544921875,0)" xlink:href="#au"/><use transform="matrix(0.0087890625,0,0,0.0087890625,51.2578125,0)" xlink:href="#ak"/></g><path d="M633 22C291 22 81-200 81-553c0-345 210-579 537-579 292 0 525 185 525 567v84H378c7 183 109 277 260 277 105 0 184-46 216-132l272 51C1071-99 893 22 633 22zM380-669h474c-15-146-94-237-233-237-143 0-229 99-241 237" id="aV"/><g id="w"><use transform="matrix(0.0087890625,0,0,0.0087890625,0,0)" xlink:href="#aC"/><use transform="matrix(0.0087890625,0,0,0.0087890625,13.166015625,0)" xlink:href="#aD"/><use transform="matrix(0.0087890625,0,0,0.0087890625,24.9521484375,0)" xlink:href="#aE"/><use transform="matrix(0.0087890625,0,0,0.0087890625,31.6318359375,0)" xlink:href="#am"/><use transform="matrix(0.0087890625,0,0,0.0087890625,42.08203125,0)" xlink:href="#aF"/><use transform="matrix(0.0087890625,0,0,0.0087890625,49.412109375,0)" xlink:href="#aD"/><use transform="matrix(0.0087890625,0,0,0.0087890625,61.1982421875,0)" xlink:href="#aE"/><use transform="matrix(0.0087890625,0,0,0.0087890625,67.8779296875,0)" xlink:href="#am"/><use transform="matrix(0.0087890625,0,0,0.0087890625,78.328125,0)" xlink:href="#aE"/><use transform="matrix(0.0087890625,0,0,0.0087890625,84.744140625,0)" xlink:href="#aV"/></g><path d="M934 0v166H0V0h934" id="aW"/><g id="x"><use transform="matrix(0.0087890625,0,0,0.0087890625,0,0)" xlink:href="#ai"/><use transform="matrix(0.0087890625,0,0,0.0087890625,10.79296875,0)" xlink:href="#ar"/><use transform="matrix(0.0087890625,0,0,0.0087890625,21.814453125,0)" xlink:href="#ak"/><use transform="matrix(0.0087890625,0,0,0.0087890625,32.30859375,0)" xlink:href="#at"/><use transform="matrix(0.0087890625,0,0,0.0087890625,42.943359375,0)" xlink:href="#aW"/><use transform="matrix(0.0087890625,0,0,0.0087890625,51.15234375,0)" xlink:href="#ah"/><use transform="matrix(0.0087890625,0,0,0.0087890625,61.435546875,0)" xlink:href="#ak"/><use transform="matrix(0.0087890625,0,0,0.0087890625,71.9296875,0)" xlink:href="#aM"/><use transform="matrix(0.0087890625,0,0,0.0087890625,76.2890625,0)" xlink:href="#aM"/><use transform="matrix(0.0087890625,0,0,0.0087890625,80.6484375,0)" xlink:href="#aJ"/><use transform="matrix(0.0087890625,0,0,0.0087890625,90.1494140625,0)" xlink:href="#as"/><use transform="matrix(0.0087890625,0,0,0.0087890625,95.3349609375,0)" xlink:href="#aK"/><use transform="matrix(0.0087890625,0,0,0.0087890625,106.734375,0)" xlink:href="#ai"/><use transform="matrix(0.0087890625,0,0,0.0087890625,117.52734375,0)" xlink:href="#aJ"/><use transform="matrix(0.0087890625,0,0,0.0087890625,127.0283203125,0)" xlink:href="#ag"/><use transform="matrix(0.0087890625,0,0,0.0087890625,131.3876953125,0)" xlink:href="#au"/><use transform="matrix(0.0087890625,0,0,0.0087890625,137.2763671875,0)" xlink:href="#ag"/><use transform="matrix(0.0087890625,0,0,0.0087890625,141.6357421875,0)" xlink:href="#ai"/><use transform="matrix(0.0087890625,0,0,0.0087890625,152.4287109375,0)" xlink:href="#at"/><use transform="matrix(0.0087890625,0,0,0.0087890625,163.0634765625,0)" xlink:href="#av"/><use transform="matrix(0.0087890625,0,0,0.0087890625,169.62890625,0)" xlink:href="#aw"/></g><g id="y"><use transform="matrix(0.0087890625,0,0,0.0087890625,0,0)" xlink:href="#ah"/><use transform="matrix(0.0087890625,0,0,0.0087890625,10.283203125,0)" xlink:href="#aM"/><use transform="matrix(0.0087890625,0,0,0.0087890625,14.642578125,0)" xlink:href="#ai"/><use transform="matrix(0.0087890625,0,0,0.0087890625,25.435546875,0)" xlink:href="#aJ"/><use transform="matrix(0.0087890625,0,0,0.0087890625,34.9365234375,0)" xlink:href="#ak"/><use transform="matrix(0.0087890625,0,0,0.0087890625,45.4306640625,0)" xlink:href="#aP"/><use transform="matrix(0.0087890625,0,0,0.0087890625,56.4521484375,0)" xlink:href="#aW"/><use transform="matrix(0.0087890625,0,0,0.0087890625,64.6611328125,0)" xlink:href="#ah"/><use transform="matrix(0.0087890625,0,0,0.0087890625,74.9443359375,0)" xlink:href="#ak"/><use transform="matrix(0.0087890625,0,0,0.0087890625,85.4384765625,0)" xlink:href="#aM"/><use transform="matrix(0.0087890625,0,0,0.0087890625,89.7978515625,0)" xlink:href="#aM"/><use transform="matrix(0.0087890625,0,0,0.0087890625,94.1572265625,0)" xlink:href="#aJ"/><use transform="matrix(0.0087890625,0,0,0.0087890625,103.658203125,0)" xlink:href="#as"/><use transform="matrix(0.0087890625,0,0,0.0087890625,108.84375,0)" xlink:href="#aK"/><use transform="matrix(0.0087890625,0,0,0.0087890625,120.2431640625,0)" xlink:href="#ai"/><use transform="matrix(0.0087890625,0,0,0.0087890625,131.0361328125,0)" xlink:href="#aJ"/><use transform="matrix(0.0087890625,0,0,0.0087890625,140.537109375,0)" xlink:href="#ag"/><use transform="matrix(0.0087890625,0,0,0.0087890625,144.896484375,0)" xlink:href="#au"/><use transform="matrix(0.0087890625,0,0,0.0087890625,150.78515625,0)" xlink:href="#ag"/><use transform="matrix(0.0087890625,0,0,0.0087890625,155.14453125,0)" xlink:href="#ai"/><use transform="matrix(0.0087890625,0,0,0.0087890625,165.9375,0)" xlink:href="#at"/><use transform="matrix(0.0087890625,0,0,0.0087890625,176.572265625,0)" xlink:href="#av"/><use transform="matrix(0.0087890625,0,0,0.0087890625,183.1376953125,0)" xlink:href="#aw"/></g><g id="z"><use transform="matrix(0.0087890625,0,0,0.0087890625,0,0)" xlink:href="#ar"/><use transform="matrix(0.0087890625,0,0,0.0087890625,11.197265625,0)" xlink:href="#aq"/><use transform="matrix(0.0087890625,0,0,0.0087890625,21.3046875,0)" xlink:href="#au"/><use transform="matrix(0.0087890625,0,0,0.0087890625,27.193359375,0)" xlink:href="#aN"/><use transform="matrix(0.0087890625,0,0,0.0087890625,37.8369140625,0)" xlink:href="#as"/><use transform="matrix(0.0087890625,0,0,0.0087890625,43.0224609375,0)" xlink:href="#aK"/><use transform="matrix(0.0087890625,0,0,0.0087890625,54.421875,0)" xlink:href="#ai"/><use transform="matrix(0.0087890625,0,0,0.0087890625,65.21484375,0)" xlink:href="#aJ"/><use transform="matrix(0.0087890625,0,0,0.0087890625,74.7158203125,0)" xlink:href="#ag"/><use transform="matrix(0.0087890625,0,0,0.0087890625,79.0751953125,0)" xlink:href="#au"/><use transform="matrix(0.0087890625,0,0,0.0087890625,84.9638671875,0)" xlink:href="#ag"/><use transform="matrix(0.0087890625,0,0,0.0087890625,89.3232421875,0)" xlink:href="#ai"/><use transform="matrix(0.0087890625,0,0,0.0087890625,100.1162109375,0)" xlink:href="#at"/><use transform="matrix(0.0087890625,0,0,0.0087890625,110.7509765625,0)" xlink:href="#av"/><use transform="matrix(0.0087890625,0,0,0.0087890625,117.31640625,0)" xlink:href="#aw"/></g><path d="M135 0v-1490h581c339 0 533 192 533 485 0 204-94 351-264 424L1302 0H964L680-532H440V0H135zm305-779h220c186 0 274-77 274-226 0-150-88-233-275-233H440v459" id="aX"/><path d="M428-647V0H128v-1118h283l4 231c63-156 176-245 348-245 232 0 384 159 384 421V0H847v-659c0-139-76-222-202-222-128 0-217 86-217 234" id="aY"/><path d="M537 19C279 19 81-185 81-557c0-382 206-575 454-575 190 0 278 113 318 202h10v-560h300V0H868v-179h-15C812-89 719 19 537 19zm92-241c153 0 240-134 240-336 0-203-86-334-240-334-158 0-240 138-240 334 0 197 84 336 240 336" id="aZ"/><g id="A"><use transform="matrix(0.0087890625,0,0,0.0087890625,0,0)" xlink:href="#aX"/><use transform="matrix(0.0087890625,0,0,0.0087890625,11.6015625,0)" xlink:href="#aV"/><use transform="matrix(0.0087890625,0,0,0.0087890625,22.32421875,0)" xlink:href="#aY"/><use transform="matrix(0.0087890625,0,0,0.0087890625,33.5302734375,0)" xlink:href="#aZ"/><use transform="matrix(0.0087890625,0,0,0.0087890625,44.876953125,0)" xlink:href="#aV"/><use transform="matrix(0.0087890625,0,0,0.0087890625,55.599609375,0)" xlink:href="#aF"/></g><path d="M409 0L70-1118h191c89 329 165 560 243 925 75-353 154-601 240-925h192c85 325 161 564 235 922 77-354 157-598 244-922h191L1267 0h-179c-86-307-176-590-250-913C763-588 675-308 588 0H409" id="ba"/><path d="M180 0v-1490h510c348 0 508 194 508 460 0 198-88 351-276 417L1256 0h-220L726-579c-117 2-238 0-356 1V0H180zm190-747h312c235 0 327-108 327-283 0-177-92-293-329-293H370v576" id="bb"/><path d="M180 0v-1490h270l367 940c28 72 75 218 110 339 35-117 81-264 110-339l362-940h271V0h-187c2-448-5-837 7-1287-157 497-311 829-483 1287H842C666-458 514-784 354-1284c12 438 5 843 7 1284H180" id="bc"/><g id="B"><use transform="matrix(0.0087890625,0,0,0.0087890625,0,0)" xlink:href="#aP"/><use transform="matrix(0.0087890625,0,0,0.0087890625,11.021484375,0)" xlink:href="#aj"/><use transform="matrix(0.0087890625,0,0,0.0087890625,17.7978515625,0)" xlink:href="#aq"/><use transform="matrix(0.0087890625,0,0,0.0087890625,27.9052734375,0)" xlink:href="#ba"/><use transform="matrix(0.0087890625,0,0,0.0087890625,42.6357421875,0)" xlink:href="#ax"/><use transform="matrix(0.0087890625,0,0,0.0087890625,49.201171875,0)" xlink:href="#bb"/><use transform="matrix(0.0087890625,0,0,0.0087890625,60.521484375,0)" xlink:href="#ak"/><use transform="matrix(0.0087890625,0,0,0.0087890625,71.015625,0)" xlink:href="#at"/><use transform="matrix(0.0087890625,0,0,0.0087890625,81.650390625,0)" xlink:href="#aP"/><use transform="matrix(0.0087890625,0,0,0.0087890625,92.671875,0)" xlink:href="#ak"/><use transform="matrix(0.0087890625,0,0,0.0087890625,103.166015625,0)" xlink:href="#aj"/><use transform="matrix(0.0087890625,0,0,0.0087890625,110.2236328125,0)" xlink:href="#bc"/><use transform="matrix(0.0087890625,0,0,0.0087890625,126.4833984375,0)" xlink:href="#ai"/><use transform="matrix(0.0087890625,0,0,0.0087890625,137.2763671875,0)" xlink:href="#aP"/><use transform="matrix(0.0087890625,0,0,0.0087890625,148.2978515625,0)" xlink:href="#ak"/><use transform="matrix(0.0087890625,0,0,0.0087890625,158.7919921875,0)" xlink:href="#aM"/><use transform="matrix(0.0087890625,0,0,0.0087890625,163.1513671875,0)" xlink:href="#aB"/></g><g id="C"><use transform="matrix(0.0087890625,0,0,0.0087890625,0,0)" xlink:href="#aC"/><use transform="matrix(0.0087890625,0,0,0.0087890625,13.4384765625,0)" xlink:href="#an"/><use transform="matrix(0.0087890625,0,0,0.0087890625,24.78515625,0)" xlink:href="#an"/><use transform="matrix(0.0087890625,0,0,0.0087890625,36.1318359375,0)" xlink:href="#aD"/><use transform="matrix(0.0087890625,0,0,0.0087890625,47.91796875,0)" xlink:href="#aE"/><use transform="matrix(0.0087890625,0,0,0.0087890625,54.59765625,0)" xlink:href="#am"/><use transform="matrix(0.0087890625,0,0,0.0087890625,65.0478515625,0)" xlink:href="#aE"/><use transform="matrix(0.0087890625,0,0,0.0087890625,71.4638671875,0)" xlink:href="#aV"/></g><g id="D"><use transform="matrix(0.0087890625,0,0,0.0087890625,0,0)" xlink:href="#aP"/><use transform="matrix(0.0087890625,0,0,0.0087890625,11.021484375,0)" xlink:href="#ak"/><use transform="matrix(0.0087890625,0,0,0.0087890625,21.515625,0)" xlink:href="#aM"/><use transform="matrix(0.0087890625,0,0,0.0087890625,25.875,0)" xlink:href="#aq"/><use transform="matrix(0.0087890625,0,0,0.0087890625,35.71875,0)" xlink:href="#aA"/><use transform="matrix(0.0087890625,0,0,0.0087890625,45.8349609375,0)" xlink:href="#as"/><use transform="matrix(0.0087890625,0,0,0.0087890625,51.0205078125,0)" xlink:href="#aO"/><use transform="matrix(0.0087890625,0,0,0.0087890625,57.6826171875,0)" xlink:href="#aM"/><use transform="matrix(0.0087890625,0,0,0.0087890625,62.0419921875,0)" xlink:href="#ai"/><use transform="matrix(0.0087890625,0,0,0.0087890625,73.0107421875,0)" xlink:href="#aq"/><use transform="matrix(0.0087890625,0,0,0.0087890625,83.1181640625,0)" xlink:href="#au"/></g><g id="E"><use transform="matrix(0.0087890625,0,0,0.0087890625,0,0)" xlink:href="#aO"/><use transform="matrix(0.0087890625,0,0,0.0087890625,6.662109375,0)" xlink:href="#ag"/><use transform="matrix(0.0087890625,0,0,0.0087890625,11.021484375,0)" xlink:href="#at"/><use transform="matrix(0.0087890625,0,0,0.0087890625,21.65625,0)" xlink:href="#ag"/><use transform="matrix(0.0087890625,0,0,0.0087890625,26.015625,0)" xlink:href="#aJ"/><use transform="matrix(0.0087890625,0,0,0.0087890625,35.5166015625,0)" xlink:href="#aN"/><use transform="matrix(0.0087890625,0,0,0.0087890625,46.16015625,0)" xlink:href="#ak"/><use transform="matrix(0.0087890625,0,0,0.0087890625,56.654296875,0)" xlink:href="#aP"/><use transform="matrix(0.0087890625,0,0,0.0087890625,67.67578125,0)" xlink:href="#as"/><use transform="matrix(0.0087890625,0,0,0.0087890625,72.861328125,0)" xlink:href="#aQ"/><use transform="matrix(0.0087890625,0,0,0.0087890625,83.8828125,0)" xlink:href="#ai"/><use transform="matrix(0.0087890625,0,0,0.0087890625,94.67578125,0)" xlink:href="#ai"/><use transform="matrix(0.0087890625,0,0,0.0087890625,105.46875,0)" xlink:href="#aM"/></g><g id="F"><use transform="matrix(0.0087890625,0,0,0.0087890625,0,0)" xlink:href="#aJ"/><use transform="matrix(0.0087890625,0,0,0.0087890625,9.5009765625,0)" xlink:href="#au"/><use transform="matrix(0.0087890625,0,0,0.0087890625,15.2138671875,0)" xlink:href="#ak"/><use transform="matrix(0.0087890625,0,0,0.0087890625,25.7080078125,0)" xlink:href="#ar"/><use transform="matrix(0.0087890625,0,0,0.0087890625,36.7294921875,0)" xlink:href="#aW"/><use transform="matrix(0.0087890625,0,0,0.0087890625,44.9384765625,0)" xlink:href="#ah"/><use transform="matrix(0.0087890625,0,0,0.0087890625,55.2216796875,0)" xlink:href="#ai"/><use transform="matrix(0.0087890625,0,0,0.0087890625,66.0146484375,0)" xlink:href="#af"/><use transform="matrix(0.0087890625,0,0,0.0087890625,76.658203125,0)" xlink:href="#at"/><use transform="matrix(0.0087890625,0,0,0.0087890625,87.29296875,0)" xlink:href="#au"/><use transform="matrix(0.0087890625,0,0,0.0087890625,93.181640625,0)" xlink:href="#as"/><use transform="matrix(0.0087890625,0,0,0.0087890625,98.3671875,0)" xlink:href="#ag"/><use transform="matrix(0.0087890625,0,0,0.0087890625,102.7265625,0)" xlink:href="#at"/><use transform="matrix(0.0087890625,0,0,0.0087890625,113.361328125,0)" xlink:href="#au"/></g><g id="G"><use transform="matrix(0.0087890625,0,0,0.0087890625,0,0)" xlink:href="#ag"/><use transform="matrix(0.0087890625,0,0,0.0087890625,4.359375,0)" xlink:href="#at"/><use transform="matrix(0.0087890625,0,0,0.0087890625,14.994140625,0)" xlink:href="#ag"/><use transform="matrix(0.0087890625,0,0,0.0087890625,19.353515625,0)" xlink:href="#au"/><use transform="matrix(0.0087890625,0,0,0.0087890625,25.2421875,0)" xlink:href="#ax"/><use transform="matrix(0.0087890625,0,0,0.0087890625,31.8076171875,0)" xlink:href="#ap"/><use transform="matrix(0.0087890625,0,0,0.0087890625,47.5751953125,0)" xlink:href="#aq"/><use transform="matrix(0.0087890625,0,0,0.0087890625,57.6826171875,0)" xlink:href="#ar"/><use transform="matrix(0.0087890625,0,0,0.0087890625,68.7041015625,0)" xlink:href="#az"/></g><g id="H"><use transform="matrix(0.0087890625,0,0,0.0087890625,0,0)" xlink:href="#aN"/><use transform="matrix(0.0087890625,0,0,0.0087890625,10.6435546875,0)" xlink:href="#as"/><use transform="matrix(0.0087890625,0,0,0.0087890625,15.8291015625,0)" xlink:href="#aO"/><use transform="matrix(0.0087890625,0,0,0.0087890625,22.4912109375,0)" xlink:href="#af"/><use transform="matrix(0.0087890625,0,0,0.0087890625,33.134765625,0)" xlink:href="#at"/><use transform="matrix(0.0087890625,0,0,0.0087890625,43.76953125,0)" xlink:href="#ah"/><use transform="matrix(0.0087890625,0,0,0.0087890625,54.052734375,0)" xlink:href="#az"/></g><g id="I"><use transform="matrix(0.0087890625,0,0,0.0087890625,0,0)" xlink:href="#aP"/><use transform="matrix(0.0087890625,0,0,0.0087890625,11.021484375,0)" xlink:href="#ak"/><use transform="matrix(0.0087890625,0,0,0.0087890625,21.515625,0)" xlink:href="#aM"/><use transform="matrix(0.0087890625,0,0,0.0087890625,25.875,0)" xlink:href="#aq"/><use transform="matrix(0.0087890625,0,0,0.0087890625,35.71875,0)" xlink:href="#aA"/><use transform="matrix(0.0087890625,0,0,0.0087890625,45.8349609375,0)" xlink:href="#aB"/><use transform="matrix(0.0087890625,0,0,0.0087890625,52.400390625,0)" xlink:href="#as"/><use transform="matrix(0.0087890625,0,0,0.0087890625,57.5859375,0)" xlink:href="#aR"/><use transform="matrix(0.0087890625,0,0,0.0087890625,70.0048828125,0)" xlink:href="#ar"/><use transform="matrix(0.0087890625,0,0,0.0087890625,81.0263671875,0)" xlink:href="#ar"/><use transform="matrix(0.0087890625,0,0,0.0087890625,92.0478515625,0)" xlink:href="#aS"/><use transform="matrix(0.0087890625,0,0,0.0087890625,103.5966796875,0)" xlink:href="#au"/><use transform="matrix(0.0087890625,0,0,0.0087890625,109.5732421875,0)" xlink:href="#aq"/><use transform="matrix(0.0087890625,0,0,0.0087890625,119.6806640625,0)" xlink:href="#au"/><use transform="matrix(0.0087890625,0,0,0.0087890625,125.3935546875,0)" xlink:href="#ak"/></g><g id="J"><use transform="matrix(0.0087890625,0,0,0.0087890625,0,0)" xlink:href="#aJ"/><use transform="matrix(0.0087890625,0,0,0.0087890625,9.5009765625,0)" xlink:href="#au"/><use transform="matrix(0.0087890625,0,0,0.0087890625,15.2138671875,0)" xlink:href="#ak"/><use transform="matrix(0.0087890625,0,0,0.0087890625,25.7080078125,0)" xlink:href="#ar"/><use transform="matrix(0.0087890625,0,0,0.0087890625,36.7294921875,0)" xlink:href="#ax"/><use transform="matrix(0.0087890625,0,0,0.0087890625,43.294921875,0)" xlink:href="#aB"/><use transform="matrix(0.0087890625,0,0,0.0087890625,49.8603515625,0)" xlink:href="#as"/><use transform="matrix(0.0087890625,0,0,0.0087890625,55.0458984375,0)" xlink:href="#aR"/><use transform="matrix(0.0087890625,0,0,0.0087890625,67.46484375,0)" xlink:href="#aS"/><use transform="matrix(0.0087890625,0,0,0.0087890625,79.013671875,0)" xlink:href="#au"/><use transform="matrix(0.0087890625,0,0,0.0087890625,84.990234375,0)" xlink:href="#aq"/><use transform="matrix(0.0087890625,0,0,0.0087890625,95.09765625,0)" xlink:href="#aj"/><use transform="matrix(0.0087890625,0,0,0.0087890625,101.8740234375,0)" xlink:href="#aS"/><use transform="matrix(0.0087890625,0,0,0.0087890625,113.4228515625,0)" xlink:href="#au"/><use transform="matrix(0.0087890625,0,0,0.0087890625,119.3994140625,0)" xlink:href="#aq"/><use transform="matrix(0.0087890625,0,0,0.0087890625,129.5068359375,0)" xlink:href="#au"/><use transform="matrix(0.0087890625,0,0,0.0087890625,135.2197265625,0)" xlink:href="#ak"/></g><path d="M784 20c-382 0-662-292-662-764 0-473 280-766 662-766s660 293 660 766c0 472-278 764-660 764zm0-176c266 0 475-207 475-588 0-383-209-590-475-590-268 0-477 208-477 590 0 380 209 588 477 588" id="bd"/><g id="K"><use transform="matrix(0.0087890625,0,0,0.0087890625,0,0)" xlink:href="#bd"/><use transform="matrix(0.0087890625,0,0,0.0087890625,13.763671875,0)" xlink:href="#aj"/><use transform="matrix(0.0087890625,0,0,0.0087890625,20.2412109375,0)" xlink:href="#ah"/><use transform="matrix(0.0087890625,0,0,0.0087890625,30.5244140625,0)" xlink:href="#aN"/><use transform="matrix(0.0087890625,0,0,0.0087890625,41.16796875,0)" xlink:href="#ak"/><use transform="matrix(0.0087890625,0,0,0.0087890625,51.662109375,0)" xlink:href="#aJ"/><use transform="matrix(0.0087890625,0,0,0.0087890625,61.1630859375,0)" xlink:href="#au"/><use transform="matrix(0.0087890625,0,0,0.0087890625,67.0517578125,0)" xlink:href="#aj"/><use transform="matrix(0.0087890625,0,0,0.0087890625,73.828125,0)" xlink:href="#aq"/><use transform="matrix(0.0087890625,0,0,0.0087890625,83.935546875,0)" xlink:href="#au"/><use transform="matrix(0.0087890625,0,0,0.0087890625,89.6484375,0)" xlink:href="#ak"/></g><path d="M166-471v-247l1019-454v289L492-601v13l693 282v287" id="be"/><path d="M128 0v-1118h278l12 217c60-163 185-234 319-234 143 0 236 81 288 251 63-172 205-251 359-251 205 0 357 138 357 381V0h-301v-697c0-126-76-187-177-187-114 0-184 79-184 196V0H789v-705c0-109-72-179-174-179-106 0-187 74-187 208V0H128" id="bf"/><path d="M572 22C302 22 117-98 78-306l279-48c29 105 101 156 224 156 114 0 185-48 185-115 0-118-228-130-337-155-215-49-322-150-322-317 0-215 187-347 470-347 265 0 424 116 466 298l-266 47c-24-76-87-130-196-130-98 0-174 46-174 113 0 56 38 95 144 117l201 40c216 44 320 143 320 302 0 220-207 367-500 367" id="bg"/><path d="M628 22C291 22 81-210 81-554c0-346 210-578 547-578 265 0 455 142 497 372l-279 52c-25-116-99-188-215-188-160 0-244 139-244 341 0 200 84 341 244 341 116 0 193-74 217-195l279 51C1085-123 896 22 628 22" id="bh"/><path d="M1224-471L205-19v-287l694-281v-14L205-883v-289l1019 454v247" id="bi"/><g id="L"><use transform="matrix(0.0087890625,0,0,0.0087890625,0,0)" xlink:href="#be"/><use transform="matrix(0.0087890625,0,0,0.0087890625,12.216796875,0)" xlink:href="#be"/><use transform="matrix(0.0087890625,0,0,0.0087890625,24.43359375,0)" xlink:href="#aY"/><use transform="matrix(0.0087890625,0,0,0.0087890625,35.6396484375,0)" xlink:href="#am"/><use transform="matrix(0.0087890625,0,0,0.0087890625,46.08984375,0)" xlink:href="#bf"/><use transform="matrix(0.0087890625,0,0,0.0087890625,62.5166015625,0)" xlink:href="#aV"/><use transform="matrix(0.0087890625,0,0,0.0087890625,73.2392578125,0)" xlink:href="#bg"/><use transform="matrix(0.0087890625,0,0,0.0087890625,83.3203125,0)" xlink:href="#an"/><use transform="matrix(0.0087890625,0,0,0.0087890625,94.8427734375,0)" xlink:href="#am"/><use transform="matrix(0.0087890625,0,0,0.0087890625,105.29296875,0)" xlink:href="#bh"/><use transform="matrix(0.0087890625,0,0,0.0087890625,115.8837890625,0)" xlink:href="#aV"/><use transform="matrix(0.0087890625,0,0,0.0087890625,126.6064453125,0)" xlink:href="#bi"/><use transform="matrix(0.0087890625,0,0,0.0087890625,138.8232421875,0)" xlink:href="#bi"/></g><path d="M135 0v-1490h305v602h649v-602h306V0h-306v-635H440V0H135" id="bj"/><path d="M513 14c-232 0-385-159-385-421v-711h300v659c0 139 76 222 202 222 127 0 217-86 217-234v-647h301V0H864l-4-232C797-74 683 14 513 14" id="bk"/><path d="M128 0v-1118h300V0H128zm150-1264c-91 0-165-68-165-154 0-85 74-154 165-154 90 0 165 69 165 154 0 86-75 154-165 154" id="bl"/><g id="M"><use transform="matrix(0.0087890625,0,0,0.0087890625,0,0)" xlink:href="#bj"/><use transform="matrix(0.0087890625,0,0,0.0087890625,13.447265625,0)" xlink:href="#aV"/><use transform="matrix(0.0087890625,0,0,0.0087890625,24.169921875,0)" xlink:href="#bk"/><use transform="matrix(0.0087890625,0,0,0.0087890625,35.3759765625,0)" xlink:href="#aF"/><use transform="matrix(0.0087890625,0,0,0.0087890625,42.837890625,0)" xlink:href="#bl"/><use transform="matrix(0.0087890625,0,0,0.0087890625,47.7158203125,0)" xlink:href="#bg"/><use transform="matrix(0.0087890625,0,0,0.0087890625,57.796875,0)" xlink:href="#aE"/><use transform="matrix(0.0087890625,0,0,0.0087890625,64.388671875,0)" xlink:href="#bl"/><use transform="matrix(0.0087890625,0,0,0.0087890625,69.2666015625,0)" xlink:href="#bh"/><use transform="matrix(0.0087890625,0,0,0.0087890625,79.857421875,0)" xlink:href="#bg"/></g><g id="N"><use transform="matrix(0.0087890625,0,0,0.0087890625,0,0)" xlink:href="#ak"/><use transform="matrix(0.0087890625,0,0,0.0087890625,10.494140625,0)" xlink:href="#af"/><use transform="matrix(0.0087890625,0,0,0.0087890625,21.1376953125,0)" xlink:href="#ah"/><use transform="matrix(0.0087890625,0,0,0.0087890625,31.4208984375,0)" xlink:href="#aM"/><use transform="matrix(0.0087890625,0,0,0.0087890625,35.7802734375,0)" xlink:href="#ag"/><use transform="matrix(0.0087890625,0,0,0.0087890625,40.1396484375,0)" xlink:href="#aP"/><use transform="matrix(0.0087890625,0,0,0.0087890625,51.1611328125,0)" xlink:href="#ak"/><use transform="matrix(0.0087890625,0,0,0.0087890625,61.8310546875,0)" xlink:href="#aq"/><use transform="matrix(0.0087890625,0,0,0.0087890625,71.9384765625,0)" xlink:href="#at"/><use transform="matrix(0.0087890625,0,0,0.0087890625,82.5732421875,0)" xlink:href="#ax"/><use transform="matrix(0.0087890625,0,0,0.0087890625,89.138671875,0)" xlink:href="#ar"/><use transform="matrix(0.0087890625,0,0,0.0087890625,99.5537109375,0)" xlink:href="#aT"/><use transform="matrix(0.0087890625,0,0,0.0087890625,106.875,0)" xlink:href="#as"/><use transform="matrix(0.0087890625,0,0,0.0087890625,112.060546875,0)" xlink:href="#aK"/><use transform="matrix(0.0087890625,0,0,0.0087890625,123.4599609375,0)" xlink:href="#ai"/><use transform="matrix(0.0087890625,0,0,0.0087890625,134.2529296875,0)" xlink:href="#aJ"/><use transform="matrix(0.0087890625,0,0,0.0087890625,143.75390625,0)" xlink:href="#ag"/><use transform="matrix(0.0087890625,0,0,0.0087890625,148.11328125,0)" xlink:href="#au"/><use transform="matrix(0.0087890625,0,0,0.0087890625,154.001953125,0)" xlink:href="#ag"/><use transform="matrix(0.0087890625,0,0,0.0087890625,158.361328125,0)" xlink:href="#ai"/><use transform="matrix(0.0087890625,0,0,0.0087890625,169.154296875,0)" xlink:href="#at"/><use transform="matrix(0.0087890625,0,0,0.0087890625,179.7890625,0)" xlink:href="#az"/></g><path d="M154 0v-137l495-537c165-179 249-281 249-418 0-156-121-253-280-253-170 0-278 110-278 278H158c0-264 200-443 465-443 266 0 455 183 455 416 0 161-73 288-336 568L416-179v12h687V0H154" id="bm"/><g id="O"><use transform="matrix(0.0087890625,0,0,0.0087890625,0,0)" xlink:href="#ar"/><use transform="matrix(0.0087890625,0,0,0.0087890625,11.021484375,0)" xlink:href="#bm"/><use transform="matrix(0.0087890625,0,0,0.0087890625,21.9990234375,0)" xlink:href="#as"/><use transform="matrix(0.0087890625,0,0,0.0087890625,27.1845703125,0)" xlink:href="#aK"/><use transform="matrix(0.0087890625,0,0,0.0087890625,38.583984375,0)" xlink:href="#ai"/><use transform="matrix(0.0087890625,0,0,0.0087890625,49.376953125,0)" xlink:href="#aJ"/><use transform="matrix(0.0087890625,0,0,0.0087890625,58.8779296875,0)" xlink:href="#ag"/><use transform="matrix(0.0087890625,0,0,0.0087890625,63.2373046875,0)" xlink:href="#au"/><use transform="matrix(0.0087890625,0,0,0.0087890625,69.1259765625,0)" xlink:href="#ag"/><use transform="matrix(0.0087890625,0,0,0.0087890625,73.4853515625,0)" xlink:href="#ai"/><use transform="matrix(0.0087890625,0,0,0.0087890625,84.2783203125,0)" xlink:href="#at"/><use transform="matrix(0.0087890625,0,0,0.0087890625,94.9130859375,0)" xlink:href="#aB"/><use transform="matrix(0.0087890625,0,0,0.0087890625,101.478515625,0)" xlink:href="#as"/><use transform="matrix(0.0087890625,0,0,0.0087890625,106.6640625,0)" xlink:href="#aO"/><use transform="matrix(0.0087890625,0,0,0.0087890625,113.326171875,0)" xlink:href="#aM"/><use transform="matrix(0.0087890625,0,0,0.0087890625,117.685546875,0)" xlink:href="#ai"/><use transform="matrix(0.0087890625,0,0,0.0087890625,128.654296875,0)" xlink:href="#aq"/><use transform="matrix(0.0087890625,0,0,0.0087890625,138.76171875,0)" xlink:href="#au"/></g><g id="P"><use transform="matrix(0.0087890625,0,0,0.0087890625,0,0)" xlink:href="#ap"/><use transform="matrix(0.0087890625,0,0,0.0087890625,15.767578125,0)" xlink:href="#aq"/><use transform="matrix(0.0087890625,0,0,0.0087890625,25.875,0)" xlink:href="#at"/><use transform="matrix(0.0087890625,0,0,0.0087890625,36.509765625,0)" xlink:href="#aN"/><use transform="matrix(0.0087890625,0,0,0.0087890625,47.1533203125,0)" xlink:href="#aq"/><use transform="matrix(0.0087890625,0,0,0.0087890625,57.2607421875,0)" xlink:href="#au"/><use transform="matrix(0.0087890625,0,0,0.0087890625,62.7099609375,0)" xlink:href="#au"/><use transform="matrix(0.0087890625,0,0,0.0087890625,68.6865234375,0)" xlink:href="#aq"/><use transform="matrix(0.0087890625,0,0,0.0087890625,78.7939453125,0)" xlink:href="#at"/><use transform="matrix(0.0087890625,0,0,0.0087890625,89.4287109375,0)" xlink:href="#ax"/><use transform="matrix(0.0087890625,0,0,0.0087890625,95.994140625,0)" xlink:href="#ar"/><use transform="matrix(0.0087890625,0,0,0.0087890625,106.4091796875,0)" xlink:href="#aT"/><use transform="matrix(0.0087890625,0,0,0.0087890625,113.73046875,0)" xlink:href="#as"/><use transform="matrix(0.0087890625,0,0,0.0087890625,118.916015625,0)" xlink:href="#aK"/><use transform="matrix(0.0087890625,0,0,0.0087890625,130.3154296875,0)" xlink:href="#ai"/><use transform="matrix(0.0087890625,0,0,0.0087890625,141.1083984375,0)" xlink:href="#aJ"/><use transform="matrix(0.0087890625,0,0,0.0087890625,150.609375,0)" xlink:href="#ag"/><use transform="matrix(0.0087890625,0,0,0.0087890625,154.96875,0)" xlink:href="#au"/><use transform="matrix(0.0087890625,0,0,0.0087890625,160.857421875,0)" xlink:href="#ag"/><use transform="matrix(0.0087890625,0,0,0.0087890625,165.216796875,0)" xlink:href="#ai"/><use transform="matrix(0.0087890625,0,0,0.0087890625,176.009765625,0)" xlink:href="#at"/><use transform="matrix(0.0087890625,0,0,0.0087890625,186.64453125,0)" xlink:href="#az"/></g><g id="Q"><use transform="matrix(0.0087890625,0,0,0.0087890625,0,0)" xlink:href="#ar"/><use transform="matrix(0.0087890625,0,0,0.0087890625,11.021484375,0)" xlink:href="#bm"/><use transform="matrix(0.0087890625,0,0,0.0087890625,21.9990234375,0)" xlink:href="#as"/><use transform="matrix(0.0087890625,0,0,0.0087890625,27.1845703125,0)" xlink:href="#aK"/><use transform="matrix(0.0087890625,0,0,0.0087890625,38.583984375,0)" xlink:href="#ai"/><use transform="matrix(0.0087890625,0,0,0.0087890625,49.376953125,0)" xlink:href="#aJ"/><use transform="matrix(0.0087890625,0,0,0.0087890625,58.8779296875,0)" xlink:href="#ag"/><use transform="matrix(0.0087890625,0,0,0.0087890625,63.2373046875,0)" xlink:href="#au"/><use transform="matrix(0.0087890625,0,0,0.0087890625,69.1259765625,0)" xlink:href="#ag"/><use transform="matrix(0.0087890625,0,0,0.0087890625,73.4853515625,0)" xlink:href="#ai"/><use transform="matrix(0.0087890625,0,0,0.0087890625,84.2783203125,0)" xlink:href="#at"/><use transform="matrix(0.0087890625,0,0,0.0087890625,94.9130859375,0)" xlink:href="#aB"/><use transform="matrix(0.0087890625,0,0,0.0087890625,101.478515625,0)" xlink:href="#as"/><use transform="matrix(0.0087890625,0,0,0.0087890625,106.6640625,0)" xlink:href="#aO"/><use transform="matrix(0.0087890625,0,0,0.0087890625,113.326171875,0)" xlink:href="#aM"/><use transform="matrix(0.0087890625,0,0,0.0087890625,117.685546875,0)" xlink:href="#ai"/><use transform="matrix(0.0087890625,0,0,0.0087890625,128.654296875,0)" xlink:href="#aq"/><use transform="matrix(0.0087890625,0,0,0.0087890625,138.76171875,0)" xlink:href="#au"/></g><path d="M135 0v-1490h581c339 0 533 210 533 503 0 295-197 500-540 500H440V0H135zm305-733h220c186 0 274-104 274-254s-88-251-275-251H440v505" id="bn"/><g id="R"><use transform="matrix(0.0087890625,0,0,0.0087890625,0,0)" xlink:href="#bn"/><use transform="matrix(0.0087890625,0,0,0.0087890625,11.4345703125,0)" xlink:href="#am"/><use transform="matrix(0.0087890625,0,0,0.0087890625,21.884765625,0)" xlink:href="#aF"/><use transform="matrix(0.0087890625,0,0,0.0087890625,29.21484375,0)" xlink:href="#bg"/><use transform="matrix(0.0087890625,0,0,0.0087890625,39.2958984375,0)" xlink:href="#aV"/><use transform="matrix(0.0087890625,0,0,0.0087890625,50.0185546875,0)" xlink:href="#aF"/></g><g id="S"><use transform="matrix(0.0087890625,0,0,0.0087890625,0,0)" xlink:href="#ar"/><use transform="matrix(0.0087890625,0,0,0.0087890625,11.197265625,0)" xlink:href="#aq"/><use transform="matrix(0.0087890625,0,0,0.0087890625,21.3046875,0)" xlink:href="#aj"/><use transform="matrix(0.0087890625,0,0,0.0087890625,28.0810546875,0)" xlink:href="#aJ"/><use transform="matrix(0.0087890625,0,0,0.0087890625,37.58203125,0)" xlink:href="#ak"/><use transform="matrix(0.0087890625,0,0,0.0087890625,48.076171875,0)" xlink:href="#aW"/><use transform="matrix(0.0087890625,0,0,0.0087890625,56.8916015625,0)" xlink:href="#ap"/><use transform="matrix(0.0087890625,0,0,0.0087890625,72.6591796875,0)" xlink:href="#aq"/><use transform="matrix(0.0087890625,0,0,0.0087890625,82.7666015625,0)" xlink:href="#ar"/><use transform="matrix(0.0087890625,0,0,0.0087890625,93.7880859375,0)" xlink:href="#ax"/><use transform="matrix(0.0087890625,0,0,0.0087890625,100.353515625,0)" xlink:href="#aJ"/><use transform="matrix(0.0087890625,0,0,0.0087890625,109.8544921875,0)" xlink:href="#au"/><use transform="matrix(0.0087890625,0,0,0.0087890625,115.7431640625,0)" xlink:href="#aj"/><use transform="matrix(0.0087890625,0,0,0.0087890625,122.51953125,0)" xlink:href="#aB"/><use transform="matrix(0.0087890625,0,0,0.0087890625,129.0849609375,0)" xlink:href="#as"/><use transform="matrix(0.0087890625,0,0,0.0087890625,134.2705078125,0)" xlink:href="#bc"/><use transform="matrix(0.0087890625,0,0,0.0087890625,150.5302734375,0)" xlink:href="#aq"/><use transform="matrix(0.0087890625,0,0,0.0087890625,160.6376953125,0)" xlink:href="#ar"/></g><g id="T"><use transform="matrix(0.0087890625,0,0,0.0087890625,0,0)" xlink:href="#ar"/><use transform="matrix(0.0087890625,0,0,0.0087890625,11.197265625,0)" xlink:href="#aq"/><use transform="matrix(0.0087890625,0,0,0.0087890625,21.3046875,0)" xlink:href="#aj"/><use transform="matrix(0.0087890625,0,0,0.0087890625,28.0810546875,0)" xlink:href="#aJ"/><use transform="matrix(0.0087890625,0,0,0.0087890625,37.58203125,0)" xlink:href="#ak"/><use transform="matrix(0.0087890625,0,0,0.0087890625,48.076171875,0)" xlink:href="#aW"/><use transform="matrix(0.0087890625,0,0,0.0087890625,56.8916015625,0)" xlink:href="#aN"/><use transform="matrix(0.0087890625,0,0,0.0087890625,67.53515625,0)" xlink:href="#ak"/><use transform="matrix(0.0087890625,0,0,0.0087890625,78.029296875,0)" xlink:href="#af"/><use transform="matrix(0.0087890625,0,0,0.0087890625,88.6728515625,0)" xlink:href="#aj"/><use transform="matrix(0.0087890625,0,0,0.0087890625,95.73046875,0)" xlink:href="#ag"/><use transform="matrix(0.0087890625,0,0,0.0087890625,100.08984375,0)" xlink:href="#aJ"/><use transform="matrix(0.0087890625,0,0,0.0087890625,109.5908203125,0)" xlink:href="#au"/><use transform="matrix(0.0087890625,0,0,0.0087890625,115.4794921875,0)" xlink:href="#ag"/><use transform="matrix(0.0087890625,0,0,0.0087890625,119.8388671875,0)" xlink:href="#ah"/><use transform="matrix(0.0087890625,0,0,0.0087890625,130.1220703125,0)" xlink:href="#ax"/><use transform="matrix(0.0087890625,0,0,0.0087890625,136.6875,0)" xlink:href="#aJ"/><use transform="matrix(0.0087890625,0,0,0.0087890625,146.1884765625,0)" xlink:href="#au"/><use transform="matrix(0.0087890625,0,0,0.0087890625,152.0771484375,0)" xlink:href="#aj"/><use transform="matrix(0.0087890625,0,0,0.0087890625,158.853515625,0)" xlink:href="#aB"/><use transform="matrix(0.0087890625,0,0,0.0087890625,165.4189453125,0)" xlink:href="#as"/><use transform="matrix(0.0087890625,0,0,0.0087890625,170.6044921875,0)" xlink:href="#ax"/><use transform="matrix(0.0087890625,0,0,0.0087890625,177.169921875,0)" xlink:href="#aO"/><use transform="matrix(0.0087890625,0,0,0.0087890625,183.83203125,0)" xlink:href="#af"/><use transform="matrix(0.0087890625,0,0,0.0087890625,194.4755859375,0)" xlink:href="#at"/><use transform="matrix(0.0087890625,0,0,0.0087890625,205.1103515625,0)" xlink:href="#ah"/><use transform="matrix(0.0087890625,0,0,0.0087890625,215.3935546875,0)" xlink:href="#az"/></g><g id="U"><use transform="matrix(0.0087890625,0,0,0.0087890625,0,0)" xlink:href="#aP"/><use transform="matrix(0.0087890625,0,0,0.0087890625,11.021484375,0)" xlink:href="#ag"/><use transform="matrix(0.0087890625,0,0,0.0087890625,15.380859375,0)" xlink:href="#aJ"/><use transform="matrix(0.0087890625,0,0,0.0087890625,24.8818359375,0)" xlink:href="#ar"/><use transform="matrix(0.0087890625,0,0,0.0087890625,35.9033203125,0)" xlink:href="#aM"/><use transform="matrix(0.0087890625,0,0,0.0087890625,40.2626953125,0)" xlink:href="#aq"/><use transform="matrix(0.0087890625,0,0,0.0087890625,50.1064453125,0)" xlink:href="#aA"/><use transform="matrix(0.0087890625,0,0,0.0087890625,58.798828125,0)" xlink:href="#aW"/><use transform="matrix(0.0087890625,0,0,0.0087890625,67.6142578125,0)" xlink:href="#at"/><use transform="matrix(0.0087890625,0,0,0.0087890625,78.2490234375,0)" xlink:href="#aq"/><use transform="matrix(0.0087890625,0,0,0.0087890625,88.3564453125,0)" xlink:href="#ap"/><use transform="matrix(0.0087890625,0,0,0.0087890625,104.1240234375,0)" xlink:href="#ak"/><use transform="matrix(0.0087890625,0,0,0.0087890625,114.6181640625,0)" xlink:href="#as"/><use transform="matrix(0.0087890625,0,0,0.0087890625,119.8037109375,0)" xlink:href="#aJ"/><use transform="matrix(0.0087890625,0,0,0.0087890625,129.3046875,0)" xlink:href="#au"/><use transform="matrix(0.0087890625,0,0,0.0087890625,135.193359375,0)" xlink:href="#aj"/><use transform="matrix(0.0087890625,0,0,0.0087890625,141.9697265625,0)" xlink:href="#aB"/></g><g id="V"><use transform="matrix(0.0087890625,0,0,0.0087890625,0,0)" xlink:href="#aX"/><use transform="matrix(0.0087890625,0,0,0.0087890625,11.6015625,0)" xlink:href="#aV"/><use transform="matrix(0.0087890625,0,0,0.0087890625,22.32421875,0)" xlink:href="#aY"/><use transform="matrix(0.0087890625,0,0,0.0087890625,33.5302734375,0)" xlink:href="#aZ"/><use transform="matrix(0.0087890625,0,0,0.0087890625,44.876953125,0)" xlink:href="#aV"/><use transform="matrix(0.0087890625,0,0,0.0087890625,55.599609375,0)" xlink:href="#aF"/><use transform="matrix(0.0087890625,0,0,0.0087890625,63.2109375,0)" xlink:href="#al"/><use transform="matrix(0.0087890625,0,0,0.0087890625,79.98046875,0)" xlink:href="#aI"/><use transform="matrix(0.0087890625,0,0,0.0087890625,91.01953125,0)" xlink:href="#aZ"/><use transform="matrix(0.0087890625,0,0,0.0087890625,102.3662109375,0)" xlink:href="#aV"/><use transform="matrix(0.0087890625,0,0,0.0087890625,113.0888671875,0)" xlink:href="#aG"/></g><g id="W"><use transform="matrix(0.0087890625,0,0,0.0087890625,0,0)" xlink:href="#aq"/><use transform="matrix(0.0087890625,0,0,0.0087890625,10.107421875,0)" xlink:href="#aJ"/><use transform="matrix(0.0087890625,0,0,0.0087890625,19.6083984375,0)" xlink:href="#au"/><use transform="matrix(0.0087890625,0,0,0.0087890625,25.5849609375,0)" xlink:href="#aq"/><use transform="matrix(0.0087890625,0,0,0.0087890625,35.6923828125,0)" xlink:href="#aj"/><use transform="matrix(0.0087890625,0,0,0.0087890625,42.46875,0)" xlink:href="#aW"/><use transform="matrix(0.0087890625,0,0,0.0087890625,50.677734375,0)" xlink:href="#aJ"/><use transform="matrix(0.0087890625,0,0,0.0087890625,60.1787109375,0)" xlink:href="#au"/><use transform="matrix(0.0087890625,0,0,0.0087890625,66.1552734375,0)" xlink:href="#aq"/><use transform="matrix(0.0087890625,0,0,0.0087890625,76.2626953125,0)" xlink:href="#au"/><use transform="matrix(0.0087890625,0,0,0.0087890625,81.9755859375,0)" xlink:href="#ak"/><use transform="matrix(0.0087890625,0,0,0.0087890625,92.4697265625,0)" xlink:href="#as"/><use transform="matrix(0.0087890625,0,0,0.0087890625,97.6552734375,0)" xlink:href="#aR"/><use transform="matrix(0.0087890625,0,0,0.0087890625,110.07421875,0)" xlink:href="#aS"/><use transform="matrix(0.0087890625,0,0,0.0087890625,121.623046875,0)" xlink:href="#au"/><use transform="matrix(0.0087890625,0,0,0.0087890625,127.599609375,0)" xlink:href="#aq"/><use transform="matrix(0.0087890625,0,0,0.0087890625,137.70703125,0)" xlink:href="#aj"/><use transform="matrix(0.0087890625,0,0,0.0087890625,144.4833984375,0)" xlink:href="#aS"/><use transform="matrix(0.0087890625,0,0,0.0087890625,156.0322265625,0)" xlink:href="#au"/><use transform="matrix(0.0087890625,0,0,0.0087890625,162.0087890625,0)" xlink:href="#aq"/><use transform="matrix(0.0087890625,0,0,0.0087890625,172.1162109375,0)" xlink:href="#au"/><use transform="matrix(0.0087890625,0,0,0.0087890625,177.8291015625,0)" xlink:href="#ak"/></g><g id="X"><use transform="matrix(0.0087890625,0,0,0.0087890625,0,0)" xlink:href="#ap"/><use transform="matrix(0.0087890625,0,0,0.0087890625,15.767578125,0)" xlink:href="#aq"/><use transform="matrix(0.0087890625,0,0,0.0087890625,25.875,0)" xlink:href="#ar"/><use transform="matrix(0.0087890625,0,0,0.0087890625,36.896484375,0)" xlink:href="#as"/><use transform="matrix(0.0087890625,0,0,0.0087890625,42.08203125,0)" xlink:href="#bc"/><use transform="matrix(0.0087890625,0,0,0.0087890625,58.341796875,0)" xlink:href="#aq"/><use transform="matrix(0.0087890625,0,0,0.0087890625,68.44921875,0)" xlink:href="#ar"/></g><g id="Y"><use transform="matrix(0.0087890625,0,0,0.0087890625,0,0)" xlink:href="#aP"/><use transform="matrix(0.0087890625,0,0,0.0087890625,11.021484375,0)" xlink:href="#ak"/><use transform="matrix(0.0087890625,0,0,0.0087890625,21.515625,0)" xlink:href="#aM"/><use transform="matrix(0.0087890625,0,0,0.0087890625,25.875,0)" xlink:href="#aq"/><use transform="matrix(0.0087890625,0,0,0.0087890625,35.71875,0)" xlink:href="#aA"/><use transform="matrix(0.0087890625,0,0,0.0087890625,45.8349609375,0)" xlink:href="#as"/><use transform="matrix(0.0087890625,0,0,0.0087890625,51.0205078125,0)" xlink:href="#aO"/><use transform="matrix(0.0087890625,0,0,0.0087890625,57.6826171875,0)" xlink:href="#aM"/><use transform="matrix(0.0087890625,0,0,0.0087890625,62.0419921875,0)" xlink:href="#ai"/><use transform="matrix(0.0087890625,0,0,0.0087890625,73.0107421875,0)" xlink:href="#aq"/><use transform="matrix(0.0087890625,0,0,0.0087890625,83.1181640625,0)" xlink:href="#au"/></g><g id="Z"><use transform="matrix(0.0087890625,0,0,0.0087890625,0,0)" xlink:href="#aJ"/><use transform="matrix(0.0087890625,0,0,0.0087890625,9.5009765625,0)" xlink:href="#au"/><use transform="matrix(0.0087890625,0,0,0.0087890625,15.2138671875,0)" xlink:href="#ak"/><use transform="matrix(0.0087890625,0,0,0.0087890625,25.7080078125,0)" xlink:href="#ar"/><use transform="matrix(0.0087890625,0,0,0.0087890625,36.7294921875,0)" xlink:href="#aW"/><use transform="matrix(0.0087890625,0,0,0.0087890625,44.9384765625,0)" xlink:href="#ah"/><use transform="matrix(0.0087890625,0,0,0.0087890625,55.2216796875,0)" xlink:href="#ai"/><use transform="matrix(0.0087890625,0,0,0.0087890625,66.0146484375,0)" xlink:href="#af"/><use transform="matrix(0.0087890625,0,0,0.0087890625,76.658203125,0)" xlink:href="#at"/><use transform="matrix(0.0087890625,0,0,0.0087890625,87.29296875,0)" xlink:href="#au"/><use transform="matrix(0.0087890625,0,0,0.0087890625,93.181640625,0)" xlink:href="#as"/><use transform="matrix(0.0087890625,0,0,0.0087890625,98.3671875,0)" xlink:href="#ag"/><use transform="matrix(0.0087890625,0,0,0.0087890625,102.7265625,0)" xlink:href="#at"/><use transform="matrix(0.0087890625,0,0,0.0087890625,113.361328125,0)" xlink:href="#au"/></g><g id="aa"><use transform="matrix(0.0087890625,0,0,0.0087890625,0,0)" xlink:href="#aN"/><use transform="matrix(0.0087890625,0,0,0.0087890625,10.6435546875,0)" xlink:href="#ak"/><use transform="matrix(0.0087890625,0,0,0.0087890625,21.1376953125,0)" xlink:href="#af"/><use transform="matrix(0.0087890625,0,0,0.0087890625,31.78125,0)" xlink:href="#aj"/><use transform="matrix(0.0087890625,0,0,0.0087890625,38.8388671875,0)" xlink:href="#ag"/><use transform="matrix(0.0087890625,0,0,0.0087890625,43.1982421875,0)" xlink:href="#aJ"/><use transform="matrix(0.0087890625,0,0,0.0087890625,52.69921875,0)" xlink:href="#ag"/><use transform="matrix(0.0087890625,0,0,0.0087890625,57.05859375,0)" xlink:href="#au"/><use transform="matrix(0.0087890625,0,0,0.0087890625,62.771484375,0)" xlink:href="#ah"/><use transform="matrix(0.0087890625,0,0,0.0087890625,73.0546875,0)" xlink:href="#aW"/><use transform="matrix(0.0087890625,0,0,0.0087890625,81.8701171875,0)" xlink:href="#at"/><use transform="matrix(0.0087890625,0,0,0.0087890625,92.5048828125,0)" xlink:href="#aq"/><use transform="matrix(0.0087890625,0,0,0.0087890625,102.6123046875,0)" xlink:href="#ap"/><use transform="matrix(0.0087890625,0,0,0.0087890625,118.3798828125,0)" xlink:href="#ak"/><use transform="matrix(0.0087890625,0,0,0.0087890625,128.8740234375,0)" xlink:href="#as"/><use transform="matrix(0.0087890625,0,0,0.0087890625,134.0595703125,0)" xlink:href="#aJ"/><use transform="matrix(0.0087890625,0,0,0.0087890625,143.560546875,0)" xlink:href="#au"/><use transform="matrix(0.0087890625,0,0,0.0087890625,149.44921875,0)" xlink:href="#aj"/></g><path d="M645 0H180v-1490h484c435 0 692 280 692 742 0 466-257 748-711 748zM370-168h263c363 0 539-218 539-580 0-358-176-574-521-574H370v1154" id="bo"/><g id="ab"><use transform="matrix(0.0087890625,0,0,0.0087890625,0,0)" xlink:href="#bo"/><use transform="matrix(0.0087890625,0,0,0.0087890625,12.990234375,0)" xlink:href="#aj"/><use transform="matrix(0.0087890625,0,0,0.0087890625,19.7666015625,0)" xlink:href="#aq"/><use transform="matrix(0.0087890625,0,0,0.0087890625,29.8740234375,0)" xlink:href="#ba"/></g><path d="M786 20C389 20 94-260 94-744c0-487 299-766 692-766 339 0 597 194 641 529h-309c-28-162-156-258-326-258-233 0-388 179-388 495 0 323 157 493 387 493 170 0 298-97 328-259h309c-34 277-266 530-642 530" id="bp"/><path d="M750-1118v229H516V0H217v-889H20v-229h197v-86c0-238 156-356 363-356 94 0 178 20 215 31l-54 226c-25-7-61-15-100-15-123-3-131 84-125 200h234" id="bq"/><g id="ac"><use transform="matrix(0.0087890625,0,0,0.0087890625,0,0)" xlink:href="#bp"/><use transform="matrix(0.0087890625,0,0,0.0087890625,13.3154296875,0)" xlink:href="#aI"/><use transform="matrix(0.0087890625,0,0,0.0087890625,24.3544921875,0)" xlink:href="#aY"/><use transform="matrix(0.0087890625,0,0,0.0087890625,35.560546875,0)" xlink:href="#bq"/><use transform="matrix(0.0087890625,0,0,0.0087890625,42.873046875,0)" xlink:href="#bl"/><use transform="matrix(0.0087890625,0,0,0.0087890625,47.7509765625,0)" xlink:href="#aH"/></g><g id="ad"><use transform="matrix(0.0087890625,0,0,0.0087890625,0,0)" xlink:href="#ap"/><use transform="matrix(0.0087890625,0,0,0.0087890625,15.767578125,0)" xlink:href="#aq"/><use transform="matrix(0.0087890625,0,0,0.0087890625,25.875,0)" xlink:href="#ar"/><use transform="matrix(0.0087890625,0,0,0.0087890625,36.896484375,0)" xlink:href="#as"/><use transform="matrix(0.0087890625,0,0,0.0087890625,42.08203125,0)" xlink:href="#aJ"/><use transform="matrix(0.0087890625,0,0,0.0087890625,51.5830078125,0)" xlink:href="#au"/><use transform="matrix(0.0087890625,0,0,0.0087890625,57.4716796875,0)" xlink:href="#aj"/></g><g id="ae"><use transform="matrix(0.0087890625,0,0,0.0087890625,0,0)" xlink:href="#aN"/><use transform="matrix(0.0087890625,0,0,0.0087890625,10.6435546875,0)" xlink:href="#ak"/><use transform="matrix(0.0087890625,0,0,0.0087890625,21.1376953125,0)" xlink:href="#af"/><use transform="matrix(0.0087890625,0,0,0.0087890625,31.78125,0)" xlink:href="#aj"/><use transform="matrix(0.0087890625,0,0,0.0087890625,38.8388671875,0)" xlink:href="#ag"/><use transform="matrix(0.0087890625,0,0,0.0087890625,43.1982421875,0)" xlink:href="#aJ"/><use transform="matrix(0.0087890625,0,0,0.0087890625,52.69921875,0)" xlink:href="#au"/><use transform="matrix(0.0087890625,0,0,0.0087890625,58.587890625,0)" xlink:href="#ag"/><use transform="matrix(0.0087890625,0,0,0.0087890625,62.947265625,0)" xlink:href="#ah"/><use transform="matrix(0.0087890625,0,0,0.0087890625,73.23046875,0)" xlink:href="#as"/><use transform="matrix(0.0087890625,0,0,0.0087890625,78.416015625,0)" xlink:href="#aJ"/><use transform="matrix(0.0087890625,0,0,0.0087890625,87.9169921875,0)" xlink:href="#au"/><use transform="matrix(0.0087890625,0,0,0.0087890625,93.8056640625,0)" xlink:href="#aj"/></g></defs></g></svg>
